<svg width="1063" height="276" viewBox="0 0 1063 276" fill="none" xmlns="http://www.w3.org/2000/svg">
<g filter="url(#filter0_d)">
<path d="M185.249 248H126.628V159.994H58.851V248H0.229492V32.1192H58.851V112.152H126.628V32.1192H185.249V248Z" fill="white"/>
<path d="M360.228 248H232.058V32.1192H360.228V78.9278H290.384V112.89H355.06V159.699H290.384V200.453H360.228V248Z" fill="white"/>
<path d="M398.029 248V32.1192H456.355V200.896H539.489V248H398.029Z" fill="white"/>
<path d="M574.041 248V32.1192H632.367V200.896H715.501V248H574.041Z" fill="white"/>
<path d="M1030.76 171.807H982.029L974.499 32.1192H1038.29L1030.76 171.807ZM975.089 223.488C975.089 214.53 977.747 207.59 983.063 202.668C988.379 197.648 996.106 195.137 1006.25 195.137C1016.29 195.137 1023.87 197.648 1028.99 202.668C1034.2 207.59 1036.81 214.53 1036.81 223.488C1036.81 232.348 1034.1 239.288 1028.69 244.308C1023.37 249.231 1015.89 251.692 1006.25 251.692C996.5 251.692 988.871 249.231 983.358 244.308C977.846 239.288 975.089 232.348 975.089 223.488Z" fill="white"/>
<path fill-rule="evenodd" clip-rule="evenodd" d="M911.524 9.18859L894.804 38.0847C896.465 39.0331 898.092 40.0262 899.683 41.0623C908.065 45.3406 915.394 50.8094 921.67 57.4687C939.223 76.0941 948 103.447 948 139.527C948 175.511 939.175 202.864 921.524 221.586C903.874 240.309 878.032 249.671 844 249.671C810.455 249.671 784.711 240.261 766.768 221.441C748.923 202.62 740 175.218 740 139.235C740 103.642 748.874 76.4842 766.622 57.7613C771.859 52.2379 777.789 47.525 784.412 43.6226C787.17 41.6392 790.046 39.7895 793.031 38.0847L776.312 9.18859C774.949 6.55341 775.766 3.28214 778.311 1.64651C780.946 0.0108829 784.49 0.828701 786.216 3.46388L803.3 32.9052C829.288 21.9102 858.548 21.9102 884.536 32.9052L901.619 3.46388C903.255 0.919569 906.526 0.101751 909.161 1.46478C911.887 2.91867 912.978 6.37167 911.524 9.18859ZM802.857 115.505C801.519 122.548 800.849 130.555 800.849 139.527C800.849 180.874 815.233 201.548 844 201.548C858.627 201.548 869.451 196.525 876.472 186.482C883.591 176.437 887.15 160.786 887.15 139.527C887.15 130.523 886.508 122.515 885.226 115.505H802.857ZM810.843 81.8963C810.843 86.1979 807.624 89.685 803.654 89.685C799.683 89.685 796.464 86.1979 796.464 81.8963C796.464 77.5947 799.683 74.1076 803.654 74.1076C807.624 74.1076 810.843 77.5947 810.843 81.8963ZM882.901 89.6849C886.872 89.6849 890.091 86.1978 890.091 81.8962C890.091 77.5946 886.872 74.1075 882.901 74.1075C878.93 74.1075 875.712 77.5946 875.712 81.8962C875.712 86.1978 878.93 89.6849 882.901 89.6849Z" fill="white"/>
</g>
<defs>
<filter id="filter0_d" x="0.229492" y="0.803467" width="1062.26" height="275.088" filterUnits="userSpaceOnUse" color-interpolation-filters="sRGB">
<feFlood flood-opacity="0" result="BackgroundImageFix"/>
<feColorMatrix in="SourceAlpha" type="matrix" values="0 0 0 0 0 0 0 0 0 0 0 0 0 0 0 0 0 0 127 0" result="hardAlpha"/>
<feOffset dx="12.1" dy="12.1"/>
<feGaussianBlur stdDeviation="6.05"/>
<feComposite in2="hardAlpha" operator="out"/>
<feColorMatrix type="matrix" values="0 0 0 0 0 0 0 0 0 0 0 0 0 0 0 0 0 0 0.25 0"/>
<feBlend mode="normal" in2="BackgroundImageFix" result="effect1_dropShadow"/>
<feBlend mode="normal" in="SourceGraphic" in2="effect1_dropShadow" result="shape"/>
</filter>
</defs>
</svg>
