<svg viewBox="0 0 256 256" fill="none" xmlns="http://www.w3.org/2000/svg">
<rect width="256" height="256" fill="black"/>
<path fill-rule="evenodd" clip-rule="evenodd" d="M127.354 146.524C151.247 146.524 170.616 127.155 170.616 103.262C170.616 79.3691 151.247 60 127.354 60L127.354 93.0364C133.001 93.0367 137.579 97.6147 137.579 103.262C137.579 108.909 133.001 113.487 127.354 113.488L127.354 123.751V123.831V123.888C127.354 131.133 127.354 135.989 127.354 146.524ZM66 60.0002H127.354V93.0368H66V60.0002ZM127.354 113.488H66V146.524H127.354V113.488Z" fill="white"/>
<g filter="url(#filter0_d)">
<path d="M66 60L195 195.293L66 146.524V60Z" fill="#4399FF"/>
</g>
<rect x="66" y="185.854" width="40.9024" height="9.43902" fill="white"/>
<defs>
<filter id="filter0_d" x="48.6951" y="40.7287" width="168.329" height="174.622" filterUnits="userSpaceOnUse" color-interpolation-filters="sRGB">
<feFlood flood-opacity="0" result="BackgroundImageFix"/>
<feColorMatrix in="SourceAlpha" type="matrix" values="0 0 0 0 0 0 0 0 0 0 0 0 0 0 0 0 0 0 127 0"/>
<feOffset dx="2.35976" dy="0.393293"/>
<feGaussianBlur stdDeviation="9.83232"/>
<feColorMatrix type="matrix" values="0 0 0 0 0 0 0 0 0 0 0 0 0 0 0 0 0 0 0.8 0"/>
<feBlend mode="normal" in2="BackgroundImageFix" result="effect1_dropShadow"/>
<feBlend mode="normal" in="SourceGraphic" in2="effect1_dropShadow" result="shape"/>
</filter>
</defs>
</svg>
