<svg width="601" height="1196" viewBox="0 0 601 1196" fill="none"
    xmlns="http://www.w3.org/2000/svg">
    <path fill-rule="evenodd" clip-rule="evenodd" d="M516.459 0H79.4514C35.5716 0 0 35.5716 0 79.4514V1116.46C0 1160.34 35.5716 1195.91 79.4514 1195.91H516.459C560.339 1195.91 595.91 1160.34 595.91 1116.46V79.4514C595.91 35.5716 560.339 0 516.459 0ZM27.9551 79.4513C27.9551 51.0107 51.0107 27.9551 79.4513 27.9551H516.459C544.899 27.9551 567.955 51.0107 567.955 79.4513V1116.46C567.955 1144.9 544.899 1167.96 516.459 1167.96H79.4513C51.0107 1167.96 27.9551 1144.9 27.9551 1116.46V79.4513ZM596 255.994H601V423.994H596V255.994ZM601 482.994H596V559.994H601V482.994Z" fill="black"/>
</svg>
