<svg width="720" height="1040" xmlns="http://www.w3.org/2000/svg" xmlns:xlink="http://www.w3.org/1999/xlink" overflow="hidden"><defs><clipPath id="clip0"><rect x="0" y="0" width="720" height="1040"/></clipPath><clipPath id="clip1"><rect x="222" y="40" width="20" height="19"/></clipPath><clipPath id="clip2"><rect x="222" y="40" width="20" height="19"/></clipPath><clipPath id="clip3"><rect x="222" y="40" width="20" height="19"/></clipPath><clipPath id="clip4"><rect x="79" y="40" width="19" height="19"/></clipPath><clipPath id="clip5"><rect x="79" y="40" width="19" height="19"/></clipPath><clipPath id="clip6"><rect x="79" y="40" width="19" height="19"/></clipPath><clipPath id="clip7"><rect x="128" y="40" width="20" height="19"/></clipPath><clipPath id="clip8"><rect x="128" y="40" width="20" height="19"/></clipPath><clipPath id="clip9"><rect x="128" y="40" width="20" height="19"/></clipPath><clipPath id="clip10"><rect x="178" y="40" width="19" height="19"/></clipPath><clipPath id="clip11"><rect x="178" y="40" width="19" height="19"/></clipPath><clipPath id="clip12"><rect x="178" y="40" width="19" height="19"/></clipPath><clipPath id="clip13"><rect x="29" y="40" width="19" height="19"/></clipPath><clipPath id="clip14"><rect x="29" y="40" width="19" height="19"/></clipPath><clipPath id="clip15"><rect x="29" y="40" width="19" height="19"/></clipPath><clipPath id="clip16"><rect x="17" y="176" width="7" height="9"/></clipPath><clipPath id="clip17"><rect x="17" y="176" width="7" height="9"/></clipPath><clipPath id="clip18"><rect x="17" y="176" width="7" height="9"/></clipPath><clipPath id="clip19"><rect x="16" y="134" width="10" height="10"/></clipPath><clipPath id="clip20"><rect x="16" y="134" width="10" height="10"/></clipPath><clipPath id="clip21"><rect x="16" y="134" width="10" height="10"/></clipPath><clipPath id="clip22"><rect x="16" y="156" width="10" height="8"/></clipPath><clipPath id="clip23"><rect x="16" y="156" width="10" height="8"/></clipPath><clipPath id="clip24"><rect x="16" y="156" width="10" height="8"/></clipPath></defs><g clip-path="url(#clip0)"><rect x="0" y="0" width="720" height="1040" fill="#FFFFFF"/><rect x="259" y="19" width="432" height="58" fill="#F2F2F2"/><rect x="0" y="0" width="259" height="1040" fill="#181717"/><text font-family="Lato,Lato_MSFontService,sans-serif" font-weight="300" font-size="13" transform="translate(279.769 107)">WORK EXPERIENCE</text><path d="M279.5 117.5 692.3 117.5" stroke="#44546A" stroke-width="0.333333" stroke-miterlimit="8" fill="none" fill-rule="evenodd"/><text font-family="Lato,Lato_MSFontService,sans-serif" font-weight="300" font-size="13" transform="translate(279.769 623)">PERSONAL PROJECTS</text><path d="M279.5 634.5 692.3 634.5" stroke="#44546A" stroke-width="0.333333" stroke-miterlimit="8" fill="none" fill-rule="evenodd"/><text font-family="Lato,Lato_MSFontService,sans-serif" font-weight="300" font-size="13" transform="translate(279.769 877)">ACHIEVEMENTS</text><path d="M279.5 887.5 692.3 887.5" stroke="#44546A" stroke-width="0.333333" stroke-miterlimit="8" fill="none" fill-rule="evenodd"/><text fill="#FFFFFF" font-family="Lato,Lato_MSFontService,sans-serif" font-weight="300" font-size="13" transform="translate(15.7798 107)">CONTACT ME</text><path d="M15.5001 117.5 265.1 117.5" stroke="#FFFFFF" stroke-width="0.333333" stroke-miterlimit="8" fill="none" fill-rule="evenodd"/><text fill="#FFFFFF" font-family="Lato,Lato_MSFontService,sans-serif" font-weight="300" font-size="13" transform="translate(15.7798 231)">SKILLS</text><path d="M15.5001 241.5 265.1 241.5" stroke="#FFFFFF" stroke-width="0.333333" stroke-miterlimit="8" fill="none" fill-rule="evenodd"/><text fill="#FFFFFF" font-family="Lato,Lato_MSFontService,sans-serif" font-weight="300" font-size="13" transform="translate(15.7798 670)">EDUCATION</text><path d="M15.5001 681.5 265.1 681.5" stroke="#FFFFFF" stroke-width="0.333333" stroke-miterlimit="8" fill="none" fill-rule="evenodd"/><text font-family="Lato,Lato_MSFontService,sans-serif" font-weight="300" font-size="13" transform="translate(280.263 66)">SOFTWARE DEVELOPER / DESIGNER<tspan font-weight="900" font-size="27" x="-0.318848" y="-17">RAHUL</tspan><tspan font-weight="400" font-size="27" x="95.5145" y="-17">KUMAR SHAH</tspan><tspan fill="#00B0F0" font-weight="700" font-size="13" x="-0.494171" y="592">SMART NAVIGATION</tspan><tspan fill="#A6A6A6" font-weight="400" font-size="11" x="-0.494171" y="607">ML Powered Desktop Navigation App  |  Source Code</tspan><tspan font-weight="400" font-size="11" x="-0.494293" y="627">–</tspan><tspan font-weight="400" font-size="11" x="11.8391" y="627">Desktop application to perform the basic user navigation with face movement and </tspan><tspan font-weight="400" font-size="11" x="11.8391" y="639">hand gestures for easy accessibility, by using the inbuilt webcam for input.</tspan><tspan font-weight="400" font-size="11" x="-0.494293" y="652">–</tspan><tspan font-weight="400" font-size="11" x="11.8391" y="652">Tech Stack: </tspan><tspan font-weight="700" font-size="11" x="67.1724" y="652">OpenCV, PyQT5, Dlib </tspan><tspan font-weight="400" font-size="11" x="171.672" y="652">and</tspan><tspan font-weight="700" font-size="11" x="191.006" y="652">NumPy.</tspan><tspan font-weight="400" font-size="11" x="-0.494293" y="838">–</tspan><tspan font-weight="400" font-size="11" x="11.8391" y="838">Won </tspan><tspan font-weight="700" font-size="11" x="36.6724" y="838">24 Hour App Innovation challenge</tspan><tspan font-weight="400" font-size="11" x="199.839" y="838">in Infoxpression USS.  </tspan><tspan fill="#0563C1" font-weight="400" font-size="11" x="302.172" y="838">Certificate</tspan></text><path d="M582.769 905.489 632.769 905.489 632.769 906.489 582.769 906.489Z" fill="#0563C1" fill-rule="evenodd"/><text font-family="Lato,Lato_MSFontService,sans-serif" font-weight="400" font-size="11" transform="translate(279.769 916)">–<tspan font-weight="700" font-size="11" x="12.3333" y="0">Open Source Contributor </tspan>for AnitaB.org and AOSSIE  community and worked on <tspan font-size="11" x="12.3333" y="13">special projects like Mentorship and Agora Android. </tspan><tspan font-size="11" x="0" y="26">–</tspan><tspan font-size="11" x="12.3333" y="26">Participated in </tspan><tspan font-weight="700" font-size="11" x="82.3333" y="26">Hackathon</tspan><tspan font-size="11" x="136.833" y="26">at university, as a lead in the team and worked on </tspan><tspan font-size="11" x="12.3333" y="39">increasing the MSP for Farmers in India.</tspan><tspan fill="#A6A6A6" font-size="11" x="-264.085" y="-162">2017 </tspan><tspan fill="#A6A6A6" font-size="11" x="-237.418" y="-162">-</tspan><tspan fill="#A6A6A6" font-size="11" x="-231.752" y="-162">2021</tspan><tspan fill="#FFFFFF" font-size="11" x="-264.085" y="-192">University School of Information, </tspan><tspan fill="#FFFFFF" font-size="11" x="-264.085" y="-180">Communication and Technology, GGSIPU</tspan><tspan fill="#00B0F0" font-weight="700" font-size="13" x="-264.085" y="-207">B.TECH (IT)</tspan><tspan fill="#A6A6A6" font-size="11" x="-84.9396" y="-161">6.8 CGPA</tspan></text><rect x="13" y="19" width="246" height="58" fill="#404040"/><g clip-path="url(#clip1)"><g clip-path="url(#clip2)"><g clip-path="url(#clip3)"><path d="M8.13245 0.0881049C6.45463 0.329436 4.83044 1.01129 3.45142 2.14899L6.41632 5.11392C7.48125 3.74255 8.075 2.00343 8.13245 0.0881049L8.13245 0.0881049ZM9.5 8.19757 15.5486 2.14899C13.9244 0.808267 11.9631 0.0995968 9.975 0 9.92902 2.44779 9.15142 4.68488 7.72642 6.424L9.5 8.19757ZM2.14899 3.45142C1.01129 4.83044 0.329436 6.45463 0.0881049 8.13245 2.00343 8.075 3.74637 7.48125 5.11392 6.41632L2.14899 3.45142ZM12.576 11.2736C14.3113 9.85243 16.5484 9.0748 19 9.025 18.9004 7.03689 18.1917 5.07561 16.851 3.45142L10.8024 9.5 12.576 11.2736 12.576 11.2736ZM9.5 10.8024 3.45142 16.851C5.07561 18.1879 7.03689 18.9004 9.025 19 9.0748 16.5484 9.85243 14.3113 11.2736 12.576L9.5 10.8024ZM16.851 15.5486C17.9887 14.1696 18.6706 12.5454 18.9119 10.8675 16.9927 10.9288 15.2536 11.5226 13.8861 12.5837L16.851 15.5486ZM6.424 7.72642C4.68488 9.15142 2.44779 9.93287 0 9.975 0.0995968 11.9631 0.808267 13.9244 2.14899 15.5486L8.19757 9.5 6.424 7.72642ZM10.8675 18.9119C12.5454 18.6706 14.1696 17.9887 15.5486 16.851L12.5837 13.8861C11.5226 15.2536 10.9288 16.9966 10.8675 18.9119Z" fill="#FFFFFF" transform="matrix(1.05263 0 0 1 222 40)"/></g></g></g><g clip-path="url(#clip4)"><g clip-path="url(#clip5)"><g clip-path="url(#clip6)"><path d="M9.49995 0C7.24418 9.35415e-05 5.06203 0.802852 3.34398 2.26464 1.62591 3.72642 0.484049 5.75185 0.122702 7.9785-0.238645 10.2052 0.204101 12.4877 1.37172 14.4178 2.53935 16.3479 4.35563 17.7995 6.49563 18.513 6.97062 18.5961 7.14875 18.3111 7.14875 18.0617 7.14875 17.8361 7.13685 17.088 7.13685 16.2924 4.75 16.7318 4.1325 15.7106 3.9425 15.1762 3.73167 14.6565 3.39746 14.1959 2.96875 13.8343 2.63625 13.6562 2.16126 13.2168 2.95687 13.2049 3.26066 13.2379 3.55205 13.3436 3.80629 13.5131 4.06056 13.6826 4.2702 13.9109 4.4175 14.1786 4.54744 14.412 4.72214 14.6175 4.93162 14.7833 5.14111 14.9491 5.38125 15.0719 5.63827 15.1447 5.8953 15.2175 6.16417 15.2389 6.42946 15.2076 6.69477 15.1763 6.95129 15.093 7.18433 14.9624 7.22546 14.4794 7.44069 14.0279 7.78998 13.6918 5.67623 13.4543 3.4675 12.6349 3.4675 9.00123 3.45415 8.05707 3.80254 7.14357 4.44125 6.4481 4.15081 5.62751 4.1848 4.72699 4.53625 3.93062 4.53625 3.93062 5.33183 3.68125 7.14873 4.90438 8.70319 4.47685 10.3442 4.47685 11.8987 4.90438 13.7155 3.66937 14.5112 3.93062 14.5112 3.93062 14.8627 4.72699 14.8966 5.62754 14.6062 6.4481 15.2468 7.14239 15.5955 8.05666 15.5799 9.00123 15.5799 12.6468 13.3593 13.4543 11.2456 13.6918 11.4723 13.9216 11.6469 14.1975 11.7575 14.5007 11.8682 14.804 11.9123 15.1275 11.8868 15.4493 11.8868 16.7199 11.8749 17.7411 11.8749 18.0618 11.8749 18.3112 12.0531 18.608 12.5281 18.513 14.6643 17.7938 16.4754 16.3387 17.638 14.4077 18.8006 12.4766 19.2392 10.1952 18.8753 7.97067 18.5115 5.74617 17.3689 3.72338 15.6516 2.26337 13.9343 0.803363 11.754 0.00117315 9.49995 0Z" fill="#FFFFFF" transform="matrix(1 0 0 1.01266 79 40)"/></g></g></g><g clip-path="url(#clip7)"><g clip-path="url(#clip8)"><g clip-path="url(#clip9)"><path d="M17.6429 0 1.3529 0C0.606473 0 0 0.614956 0 1.36987L0 17.6301C0 18.385 0.606473 19 1.3529 19L17.6429 19C18.3893 19 19 18.385 19 17.6301L19 1.36987C19 0.614956 18.3893 0 17.6429 0ZM5.74242 16.2857 2.92633 16.2857 2.92633 7.21831 5.74664 7.21831 5.74664 16.2857 5.74242 16.2857ZM4.33437 5.97992C3.43102 5.97992 2.70156 5.24621 2.70156 4.34711 2.70156 3.448 3.43102 2.71429 4.33437 2.71429 5.23348 2.71429 5.96719 3.448 5.96719 4.34711 5.96719 5.25044 5.23773 5.97992 4.33437 5.97992ZM16.2984 16.2857 13.4824 16.2857 13.4824 11.875C13.4824 10.8232 13.4612 9.47031 12.0192 9.47031 10.5518 9.47031 10.327 10.6154 10.327 11.7987L10.327 16.2857 7.51094 16.2857 7.51094 7.21831 10.2125 7.21831 10.2125 8.45669 10.2507 8.45669C10.6281 7.74419 11.5484 6.99352 12.9183 6.99352 15.7683 6.99352 16.2984 8.87231 16.2984 11.3152L16.2984 16.2857Z" fill="#FFFFFF" transform="matrix(1.05263 0 0 1 128 40)"/></g></g></g><g clip-path="url(#clip10)"><g clip-path="url(#clip11)"><g clip-path="url(#clip12)"><path d="M11.135 8.69642 2.94334 0.482517 13.3657 6.46572 11.135 8.69642 11.135 8.69642ZM0.805431 0C0.322915 0.252394 0 0.71264 0 1.31022L0 17.6898C0 18.2874 0.322915 18.7476 0.805431 19L10.3296 9.49815 0.805431 0ZM16.5874 8.37351 14.4012 7.10783 11.9627 9.50185 14.4012 11.8959 16.632 10.6302C17.3001 10.0994 17.3001 8.90428 16.5874 8.37351L16.5874 8.37351ZM2.94334 18.5212 13.3657 12.538 11.135 10.3073 2.94334 18.5212Z" fill="#FFFFFF" transform="matrix(1.09589 0 0 1 178 40)"/></g></g></g><g clip-path="url(#clip13)"><g clip-path="url(#clip14)"><g clip-path="url(#clip15)"><path d="M36.087 47.6237 36.087 47.6641C36.068 47.729 36.0506 47.7932 36.0348 47.8565L36.0158 47.9301C36.0015 47.9887 35.988 48.0473 35.9754 48.1059L35.9611 48.1724C35.9445 48.2508 35.9303 48.3291 35.916 48.4099L35.916 48.4455C35.9049 48.5136 35.8954 48.5825 35.8875 48.6521L35.8875 48.7281C35.8875 48.7883 35.8812 48.8477 35.8685 48.9062 35.8685 48.93 35.8685 48.9538 35.8685 48.9775 35.8685 49.0559 35.8685 49.1366 35.8542 49.215L38.1414 49.215 38.1414 47.6119 36.0918 47.6119 36.087 47.6237Z" fill="#FFFFFF"/><path d="M35.84 50.0724 35.84 50.0985C35.84 50.1769 35.8566 50.2529 35.8661 50.336L35.8661 50.3978C35.874 50.4579 35.8828 50.5189 35.8923 50.5806L35.8923 50.6376C35.9049 50.7136 35.9192 50.7928 35.935 50.8751L35.935 50.9155C35.9492 50.9788 35.9643 51.0414 35.9801 51.1031L35.9967 51.1673C36.0142 51.2337 36.0324 51.3003 36.0514 51.3667L36.0514 51.3929 38.0677 51.3929 38.0677 49.918 35.8305 49.918C35.8329 49.975 35.8353 50.0201 35.84 50.0724Z" fill="#FFFFFF"/><path d="M37.987 44.75 37.8302 44.8783 37.8065 44.8996 37.6782 45.016 37.6284 45.0635 37.5262 45.1632 37.4764 45.2131 37.3671 45.3295 37.3363 45.3651 37.2009 45.5219 37.1652 45.567 37.075 45.7 37.0299 45.757 36.9444 45.8758 36.904 45.9304 36.7924 46.099C36.7544 46.1584 36.7188 46.2178 36.6831 46.2771L36.6499 46.3365 36.5762 46.4671 36.5406 46.5312 36.4694 46.6738 36.4432 46.726C36.4132 46.7878 36.3847 46.8495 36.3577 46.9113L38.1176 46.9113 38.1176 44.6645 38.0416 44.7215 37.987 44.75Z" fill="#FFFFFF"/><path d="M36.4385 52.2835 36.467 52.3405 36.5382 52.4806 36.5715 52.5448 36.6523 52.6896 36.6784 52.7347C36.7148 52.7965 36.752 52.8575 36.79 52.9176L36.8185 52.9604 36.9111 53.0981 36.9515 53.1551 37.0417 53.2786 37.0798 53.3285 37.2127 53.4924 37.227 53.509 37.3529 53.6515 37.398 53.699 37.5025 53.8083 37.55 53.8558 37.6782 53.9792 37.6996 54.0006 37.854 54.136 37.8991 54.174 38.0179 54.269 38.0701 54.3094 38.1105 54.3379 38.1105 52.0887 36.3506 52.0887C36.3791 52.1537 36.4084 52.2186 36.4385 52.2835Z" fill="#FFFFFF"/><path d="M40.5995 46.7236 40.5758 46.6761 40.4997 46.5265 40.4641 46.46 40.4 46.3365 40.3596 46.2676 40.2836 46.1441 40.2456 46.0824 40.1411 45.9375 40.1221 45.909 39.9963 45.7356 39.9606 45.6905 39.8656 45.5694 39.8181 45.5124 39.7279 45.4055 39.6875 45.3461 39.5877 45.2393 39.5426 45.1917 39.3978 45.0493 39.2434 44.9091 39.1959 44.8688 39.0843 44.7761 39.0249 44.731 38.918 44.6502 38.8586 44.6075 38.8254 44.5861 38.8254 46.9113 40.685 46.9113C40.6533 46.8479 40.6248 46.7854 40.5995 46.7236Z" fill="#FFFFFF"/><path d="M35.5906 46.9113 35.5906 46.8875C35.6175 46.8178 35.646 46.749 35.6761 46.6809L35.6904 46.6452C35.722 46.574 35.7545 46.5035 35.7878 46.4339L35.8091 46.3911C35.8424 46.3199 35.878 46.251 35.916 46.1821L35.916 46.1655C35.9508 46.099 35.9873 46.0341 36.0252 45.9707L36.0466 45.9351C36.0846 45.8702 36.1242 45.8053 36.1654 45.7404L36.1915 45.7024C36.2342 45.6382 36.277 45.5718 36.3221 45.51 36.3649 45.4482 36.4092 45.3881 36.4551 45.3295L36.4813 45.2962 36.6214 45.1205 36.6499 45.0872C36.6997 45.0279 36.7496 44.9685 36.8019 44.9115L36.904 44.7999C35.7709 45.1639 34.806 45.9223 34.1846 46.9374L35.5621 46.9374 35.5906 46.9113Z" fill="#FFFFFF"/><path d="M35.1204 49.215C35.1204 49.1533 35.1204 49.0923 35.1204 49.0321L35.1204 48.987C35.1204 48.9395 35.1204 48.892 35.1204 48.8445L35.1204 48.7899C35.1204 48.736 35.1259 48.6822 35.137 48.6284L35.137 48.607C35.137 48.5476 35.1536 48.4859 35.1608 48.4265L35.1608 48.3766C35.1608 48.3307 35.1687 48.2848 35.1845 48.2389L35.1845 48.189C35.1845 48.1296 35.2059 48.0703 35.2201 48.0109 35.232 47.9515 35.2463 47.8945 35.2581 47.8351L35.27 47.7852 35.3032 47.6499 35.3032 47.619 33.8545 47.619C33.6427 48.1289 33.5183 48.6709 33.4864 49.2221L35.1204 49.2221 35.1204 49.215Z" fill="#FFFFFF"/><path d="M36.8375 54.136 36.6926 53.9721 36.6665 53.9412 36.524 53.7631 36.4955 53.7251C36.448 53.6634 36.4005 53.5993 36.3554 53.5351 36.3102 53.471 36.2675 53.4069 36.2248 53.3428L36.2034 53.3C36.1622 53.2351 36.1218 53.1694 36.0822 53.1029L36.0585 53.0649C36.0205 53 35.9833 52.9342 35.9469 52.8678L35.9469 52.8535C35.9089 52.7846 35.8732 52.7134 35.8376 52.6398L35.8091 52.5875C35.7743 52.5163 35.741 52.445 35.7094 52.3737L35.6927 52.35C35.6627 52.2819 35.6342 52.2122 35.6073 52.141L35.6073 52.1125 35.6073 52.0983 34.1917 52.0983C34.8187 53.1461 35.811 53.9251 36.9776 54.2856L36.8612 54.1621 36.8375 54.136Z" fill="#FFFFFF"/><path d="M35.3626 51.3881 35.3626 51.3549 35.3341 51.2409 35.3199 51.1886 35.289 51.0485 35.289 51.0224C35.2779 50.967 35.2668 50.9123 35.2557 50.8585L35.2557 50.811 35.2106 50.6875 35.2106 50.6305C35.2106 50.5909 35.2051 50.5505 35.194 50.5094L35.194 50.4619C35.194 50.4065 35.1877 50.351 35.175 50.2956L35.175 50.2671C35.175 50.2212 35.1702 50.1745 35.1608 50.127L35.1608 50.07C35.1608 50.0304 35.1608 49.9908 35.1608 49.9512L35.1608 49.918 33.4935 49.918C33.5325 50.423 33.6495 50.9189 33.8402 51.3881L35.3602 51.3881 35.3626 51.3881Z" fill="#FFFFFF"/><path d="M40.9463 51.381 40.9463 51.3549C40.9653 51.2884 40.9835 51.2219 41.0009 51.1554L41.0175 51.0913C41.0333 51.0279 41.0484 50.9654 41.0626 50.9036L41.0626 50.8633C41.0785 50.7873 41.0927 50.7081 41.1054 50.6258L41.1054 50.5687C41.1149 50.5086 41.1236 50.4476 41.1315 50.3859L41.1315 50.3241C41.1315 50.2458 41.1505 50.1698 41.1576 50.0866L41.1576 50.0605C41.1576 50.0082 41.1576 49.9584 41.1576 49.9061L38.8111 49.9061 38.8111 51.3763 40.9486 51.3763 40.9463 51.381Z" fill="#FFFFFF"/><path d="M41.673 47.6119 41.673 47.6427 41.7062 47.7757 41.7181 47.828C41.7324 47.885 41.745 47.9428 41.7561 48.0014 41.768 48.0607 41.7799 48.1201 41.7917 48.1795L41.7917 48.2318C41.7917 48.2777 41.7989 48.3228 41.8131 48.3671L41.8131 48.417C41.8131 48.4764 41.8298 48.5358 41.8369 48.5975L41.8369 48.6189C41.8369 48.6727 41.8424 48.7265 41.8535 48.7804L41.8535 48.835C41.8535 48.8825 41.8535 48.9292 41.8535 48.9751L41.8535 49.025C41.8535 49.0852 41.8535 49.1461 41.8535 49.2079L43.3711 49.2079C43.3393 48.6566 43.2148 48.1147 43.003 47.6048L41.673 47.6048 41.673 47.6119Z" fill="#FFFFFF"/><path d="M40.1625 44.8331 40.2005 44.8759 40.2314 44.9091 40.3763 45.0778 40.4 45.1063 40.5378 45.282C40.5829 45.3438 40.628 45.4055 40.6731 45.4673L40.6992 45.5029 40.8228 45.6881 40.8465 45.7261C40.8869 45.7902 40.9272 45.8568 40.9676 45.9232L40.9676 45.9399C41.0056 46.0048 41.042 46.0705 41.0769 46.137L41.1125 46.175C41.1489 46.2415 41.1838 46.3096 41.217 46.3792L41.2384 46.422C41.2716 46.4917 41.3041 46.5621 41.3358 46.6334L41.35 46.6642C41.3801 46.7339 41.4086 46.8036 41.4355 46.8732L41.4355 46.8946 42.6966 46.8946C42.1073 45.9425 41.2147 45.2163 40.1625 44.8331Z" fill="#FFFFFF"/><path d="M38.5 40C36.6211 40 34.7844 40.5572 33.2221 41.601 31.6598 42.6449 30.4422 44.1286 29.7232 45.8645 29.0041 47.6004 28.816 49.5105 29.1825 51.3534 29.5491 53.1962 30.4539 54.8889 31.7825 56.2175 33.1111 57.5461 34.8038 58.4509 36.6466 58.8175 38.4895 59.184 40.3996 58.9959 42.1355 58.2769 43.8714 57.5578 45.3551 56.3402 46.399 54.7779 47.4428 53.2156 48 51.3789 48 49.5 48 46.9804 46.9991 44.5641 45.2175 42.7825 43.4359 41.0009 41.0196 40 38.5 40ZM38.4596 55.1169C37.3487 55.1169 36.2627 54.7874 35.3391 54.1703 34.4154 53.5531 33.6954 52.6758 33.2703 51.6495 32.8452 50.6231 32.734 49.4938 32.9507 48.4042 33.1674 47.3146 33.7024 46.3138 34.4879 45.5283 35.2734 44.7427 36.2743 44.2078 37.3638 43.991 38.4534 43.7743 39.5828 43.8855 40.6091 44.3107 41.6355 44.7358 42.5127 45.4557 43.1299 46.3794 43.7471 47.3031 44.0765 48.3891 44.0765 49.5 44.0752 50.9893 43.4831 52.4172 42.43 53.4703 41.3769 54.5234 39.9489 55.1156 38.4596 55.1169Z" fill="#FFFFFF"/><path d="M40.2314 52.9295 40.2623 52.882 40.3478 52.7442 40.3858 52.6777 40.457 52.5495 40.495 52.4806 40.5663 52.3405 40.5948 52.2835C40.6264 52.2186 40.6565 52.1537 40.685 52.0887L38.8111 52.0887 38.8111 54.421 38.8349 54.4044 38.9774 54.2999 39.032 54.2571 39.1413 54.1693 39.1983 54.1194 39.3051 54.0244 39.3574 53.9769 39.4951 53.8439 39.5094 53.8296 39.6543 53.6776 39.697 53.6278 39.7944 53.5161 39.8443 53.4567 39.9345 53.3451 39.9796 53.2858 40.0794 53.1504 40.1079 53.1124C40.1443 53.0522 40.1855 52.9912 40.2314 52.9295Z" fill="#FFFFFF"/><path d="M41.9081 49.918 41.9081 49.9512C41.9081 49.9908 41.9081 50.0304 41.9081 50.07L41.9081 50.1246C41.9081 50.1721 41.9034 50.2196 41.8939 50.2671L41.8939 50.2956C41.8939 50.351 41.8867 50.4072 41.8725 50.4642L41.8725 50.5117C41.8725 50.5529 41.8662 50.5941 41.8535 50.6353L41.825 50.6875 41.8036 50.8086 41.8036 50.8561C41.7925 50.9115 41.7814 50.967 41.7704 51.0224L41.7704 51.0438 41.7371 51.1862 41.7253 51.2385 41.6968 51.3549 41.6968 51.3857 43.1004 51.3857C43.2912 50.9166 43.4082 50.4206 43.4471 49.9156L41.9081 49.9156 41.9081 49.918Z" fill="#FFFFFF"/><path d="M41.4426 52.0887 41.4426 52.103 41.4426 52.1268C41.4141 52.1996 41.3848 52.2708 41.3548 52.3405L41.3548 52.369C41.3231 52.4418 41.2898 52.5139 41.255 52.5851L41.236 52.6255C41.2012 52.6968 41.1656 52.7672 41.1292 52.8369L41.1125 52.8654C41.0761 52.9335 41.0381 53.0008 40.9985 53.0672L40.9985 53.0863C40.9581 53.1551 40.9178 53.2216 40.875 53.2881L40.8513 53.3261C40.8085 53.391 40.765 53.4552 40.7206 53.5185L40.6613 53.5375C40.6169 53.6008 40.571 53.6626 40.5235 53.7227 40.476 53.7845 40.4261 53.8462 40.3763 53.9056L40.3478 53.9389 40.1982 54.1099 40.1696 54.1408 40.1174 54.1978C41.2102 53.8106 42.134 53.0547 42.7299 52.0602L41.4474 52.0602 41.4426 52.0887Z" fill="#FFFFFF"/><path d="M41.198 48.9775C41.198 48.9538 41.198 48.93 41.198 48.9062 41.198 48.8461 41.1917 48.7859 41.179 48.7257L41.179 48.6497C41.1695 48.5801 41.1592 48.5112 41.1481 48.4431L41.1481 48.4075C41.1339 48.3268 41.1196 48.2484 41.103 48.17L41.0887 48.1035C41.0761 48.0449 41.0626 47.9863 41.0484 47.9277L41.0294 47.8541C41.0135 47.7908 40.9961 47.7267 40.9771 47.6618L40.9652 47.619 38.8278 47.619 38.8278 49.215 41.2122 49.215C41.2099 49.1366 41.2051 49.0559 41.198 48.9775Z" fill="#FFFFFF"/></g></g></g><text fill="#FFFFFF" font-family="Lato,Lato_MSFontService,sans-serif" font-weight="400" font-size="11" transform="translate(36.7958 143)">(+91) 9711735542<tspan font-size="11" x="0.469501" y="22">rahulkumarshah5000@gmail.com</tspan><tspan font-size="11" x="0.469501" y="43">New Delhi, India</tspan></text><g clip-path="url(#clip16)"><g clip-path="url(#clip17)"><g clip-path="url(#clip18)"><path d="M3.02815 8.81841C0.474082 5.11578 0 4.73578 0 3.375 0 1.51103 1.51103 0 3.375 0 5.23897 0 6.75 1.51103 6.75 3.375 6.75 4.73578 6.27591 5.11578 3.72185 8.81841 3.55425 9.06054 3.19574 9.06052 3.02815 8.81841ZM3.375 4.78125C4.15165 4.78125 4.78125 4.15165 4.78125 3.375 4.78125 2.59834 4.15165 1.96875 3.375 1.96875 2.59834 1.96875 1.96875 2.59834 1.96875 3.375 1.96875 4.15165 2.59834 4.78125 3.375 4.78125Z" fill="#FFFFFF" transform="matrix(1.03704 0 0 1 17 176)"/></g></g></g><g clip-path="url(#clip19)"><g clip-path="url(#clip20)"><g clip-path="url(#clip21)"><path d="M25.7148 141.066 23.5273 140.129C23.4338 140.089 23.33 140.081 23.2313 140.105 23.1327 140.129 23.0446 140.185 22.9804 140.264L22.0116 141.447C20.4912 140.73 19.2677 139.507 18.5508 137.986L19.7344 137.018C19.8133 136.954 19.8691 136.865 19.8934 136.767 19.9177 136.668 19.9092 136.564 19.8692 136.471L18.9317 134.283C18.8878 134.183 18.8101 134.1 18.712 134.051 18.614 134.001 18.5017 133.987 18.3946 134.012L16.3633 134.48C16.26 134.504 16.1678 134.562 16.1019 134.645 16.0359 134.728 16 134.831 16 134.937 16 139.947 20.0606 144 25.0627 144 25.1687 144 25.2716 143.964 25.3546 143.898 25.4376 143.832 25.4958 143.74 25.5197 143.637L25.9884 141.605C26.0126 141.498 25.9986 141.385 25.9486 141.287 25.8987 141.188 25.816 141.11 25.7148 141.066L25.7148 141.066Z" fill="#FFFFFF"/></g></g></g><g clip-path="url(#clip22)"><g clip-path="url(#clip23)"><g clip-path="url(#clip24)"><path d="M9.81055 2.47656C9.88671 2.41601 10 2.47265 10 2.56836L10 6.5625C10 7.08007 9.58008 7.5 9.0625 7.5L0.9375 7.5C0.419923 7.5 0 7.08007 0 6.5625L0 2.57031C0 2.47266 0.111328 2.41796 0.189452 2.47851 0.626953 2.81836 1.20703 3.25 3.19922 4.69726 3.61133 4.99805 4.30664 5.63086 5 5.62695 5.69726 5.63281 6.40625 4.98632 6.80274 4.69726 8.79492 3.25 9.37305 2.81641 9.81055 2.47656ZM5 5C5.45312 5.00781 6.10546 4.42969 6.43359 4.19141 9.02539 2.31055 9.22265 2.14649 9.82031 1.67774 9.93359 1.58984 10 1.45312 10 1.3086L10 0.9375C10 0.419923 9.58008 0 9.0625 0L0.9375 0C0.419923 0 0 0.419923 0 0.9375L0 1.3086C0 1.45312 0.0664062 1.58789 0.179688 1.67774 0.777344 2.14453 0.97461 2.31055 3.56641 4.19141 3.89454 4.42969 4.54688 5.00781 5 5Z" fill="#FFFFFF" transform="matrix(1 0 0 1.06667 16 156)"/></g></g></g><text fill="#00B0F0" font-family="Lato,Lato_MSFontService,sans-serif" font-weight="700" font-size="13" transform="translate(280.312 143)">MOBILE  DEVELOPER<tspan fill="#A6A6A6" font-weight="400" font-size="11" x="0" y="14">Incablet Media   |   Internship</tspan><tspan fill="#000000" font-weight="400" font-size="11" x="0" y="33">–</tspan><tspan fill="#000000" font-weight="400" font-size="11" x="12.3333" y="33">Design, build and maintained high performance, reusable and reliable native code for </tspan><tspan fill="#000000" font-size="11" x="12.3333" y="45">SmartSevak</tspan><tspan fill="#000000" font-weight="400" font-size="11" x="71.6667" y="45">and </tspan><tspan fill="#000000" font-size="11" x="91" y="45">Inn91 </tspan><tspan fill="#000000" font-weight="400" font-size="11" x="120.667" y="45">with more than 50% performance improvements.</tspan><tspan fill="#000000" font-weight="400" font-size="11" x="0" y="58">–</tspan><tspan fill="#000000" font-weight="400" font-size="11" x="12.3333" y="58">Used Scrum Agile Methodology and issue tracking via </tspan><tspan fill="#000000" font-size="11" x="262.333" y="58">JIRA </tspan><tspan fill="#000000" font-weight="400" font-size="11" x="286.833" y="58">and </tspan><tspan fill="#000000" font-size="11" x="306.167" y="58">Gitlab</tspan><tspan fill="#000000" font-weight="400" font-size="11" x="335.333" y="58">.</tspan><tspan fill="#000000" font-weight="400" font-size="11" x="0" y="71">–</tspan><tspan fill="#000000" font-weight="400" font-size="11" x="12.3333" y="71">Tech Stack: </tspan><tspan fill="#000000" font-size="11" x="67.6667" y="71">Jetpack Components , RxJava3, Dagger2, Postman, AWS Gateway, </tspan><tspan fill="#000000" font-size="11" x="12.3333" y="84">Flutter </tspan><tspan fill="#000000" font-weight="400" font-size="11" x="47.5" y="84">and</tspan><tspan fill="#000000" font-size="11" x="66.8333" y="84">MVVM</tspan><tspan fill="#000000" font-weight="400" font-size="11" x="103.833" y="84">architecture.</tspan><tspan fill="#A6A6A6" font-weight="400" font-size="11" x="337.323" y="11">Jun</tspan><tspan fill="#A6A6A6" font-weight="400" font-size="11" x="353.989" y="11">-</tspan><tspan fill="#A6A6A6" font-weight="400" font-size="11" x="357.656" y="11">Sept (2020)</tspan><tspan font-size="13" x="-0.368195" y="121">PRODUCT  DEVELOPER:  ANDROID</tspan><tspan fill="#A6A6A6" font-weight="400" font-size="11" x="-0.368286" y="135">Floydwiz Technologies Private Limited   |   Internship </tspan><tspan fill="#000000" font-weight="400" font-size="11" x="-0.543732" y="154">–</tspan><tspan fill="#000000" font-weight="400" font-size="11" x="11.7896" y="154">Designed and developed </tspan><tspan fill="#000000" font-size="11" x="128.29" y="154">PikaGames</tspan><tspan fill="#000000" font-weight="400" font-size="11" x="183.956" y="154">and </tspan><tspan fill="#000000" font-size="11" x="203.29" y="154">PikaBrowser</tspan><tspan fill="#000000" font-weight="400" font-size="11" x="266.79" y="154">as a module for the Parental </tspan><tspan fill="#000000" font-weight="400" font-size="11" x="11.7896" y="166">Control App with 360 degree online kids safety.</tspan><tspan fill="#000000" font-weight="400" font-size="11" x="-0.543732" y="179">–</tspan><tspan fill="#000000" font-weight="400" font-size="11" x="11.7896" y="179">Created custom WebView for age</tspan><tspan fill="#000000" font-weight="400" font-size="11" x="169.456" y="179">-</tspan><tspan fill="#000000" font-weight="400" font-size="11" x="173.123" y="179">appropriate browsing and learning purposes with </tspan><tspan fill="#000000" font-weight="400" font-size="11" x="11.7896" y="192">parental remote monitoring.</tspan><tspan fill="#000000" font-weight="400" font-size="11" x="-0.543732" y="205">–</tspan><tspan fill="#000000" font-weight="400" font-size="11" x="11.7896" y="205">Integrated 100+ HTML5 Games with increased support for multiple devices.</tspan><tspan fill="#000000" font-weight="400" font-size="11" x="-0.543732" y="218">–</tspan><tspan fill="#000000" font-weight="400" font-size="11" x="11.7896" y="218">Tech Stack: </tspan><tspan fill="#000000" font-size="11" x="67.123" y="218">AWS Database</tspan><tspan fill="#000000" font-weight="400" font-size="11" x="138.956" y="218">, </tspan><tspan fill="#000000" font-size="11" x="143.29" y="218">Room</tspan><tspan fill="#000000" font-weight="400" font-size="11" x="171.29" y="218">,</tspan><tspan fill="#000000" font-size="11" x="175.623" y="218">Retrofit, Dagger </tspan><tspan fill="#000000" font-weight="400" font-size="11" x="254.456" y="218">and</tspan><tspan fill="#000000" font-size="11" x="273.79" y="218">MVP </tspan><tspan fill="#000000" font-weight="400" font-size="11" x="299.956" y="218">architecture.</tspan><tspan fill="#A6A6A6" font-weight="400" font-size="11" x="338.656" y="132">Jun</tspan><tspan fill="#A6A6A6" font-weight="400" font-size="11" x="355.323" y="132">-</tspan><tspan fill="#A6A6A6" font-weight="400" font-size="11" x="358.989" y="132">Aug (2019)</tspan><tspan font-size="13" x="-0.54361" y="254">FREELANCER</tspan><tspan fill="#A6A6A6" font-weight="400" font-size="11" x="-0.54361" y="269">Eklavya Study Point   |  Freelance</tspan><tspan fill="#000000" font-weight="400" font-size="11" x="-0.543732" y="289">–</tspan><tspan fill="#000000" font-weight="400" font-size="11" x="11.7896" y="289">Designed and developed </tspan><tspan fill="#000000" font-size="11" x="128.29" y="289">Eklavya Study </tspan><tspan fill="#000000" font-weight="400" font-size="11" x="197.29" y="289">Android App that</tspan><tspan fill="#000000" font-weight="400" font-size="11" x="279.956" y="289">provides useful videos and </tspan><tspan fill="#000000" font-weight="400" font-size="11" x="11.7896" y="301">handwritten notes to study in a better manner for free.</tspan><tspan fill="#000000" font-weight="400" font-size="11" x="-0.543732" y="314">–</tspan><tspan fill="#000000" font-weight="400" font-size="11" x="11.7896" y="314">Features like phone auth, download &amp; Upload of notes, Quizzes and puzzles added.</tspan><tspan fill="#000000" font-weight="400" font-size="11" x="-0.543732" y="327">–</tspan><tspan fill="#000000" font-weight="400" font-size="11" x="11.7896" y="327">Tech Stack: </tspan><tspan fill="#000000" font-size="11" x="67.123" y="327">Firebase, RxJava2, SQLite, Retrofit, Material Design </tspan><tspan fill="#000000" font-weight="400" font-size="11" x="313.956" y="327">and</tspan><tspan fill="#000000" font-size="11" x="333.29" y="327">YT Data API.</tspan><tspan fill="#A6A6A6" font-weight="400" font-size="11" x="337.745" y="268">Jan</tspan><tspan fill="#A6A6A6" font-weight="400" font-size="11" x="353.745" y="268">-</tspan><tspan fill="#A6A6A6" font-weight="400" font-size="11" x="357.412" y="268">May (2019)</tspan><tspan font-size="13" x="-0.54361" y="365">LEAD  ANDROID  DEVELOPER</tspan><tspan fill="#A6A6A6" font-weight="400" font-size="11" x="-0.54361" y="380">Dwarkawala  |  Internship</tspan><tspan fill="#000000" font-weight="400" font-size="11" x="-0.543732" y="400">–</tspan><tspan fill="#000000" font-weight="400" font-size="11" x="11.7896" y="400">Developed Dwarkawala app through which users can explore the curated lists of best </tspan><tspan fill="#000000" font-weight="400" font-size="11" x="11.7896" y="412">restaurants, bars, cafes nearby and grab easy discounts &amp; offers</tspan><tspan fill="#000000" font-weight="400" font-size="11" x="-0.543732" y="425">–</tspan><tspan fill="#000000" font-weight="400" font-size="11" x="11.7896" y="425">Integrated news feed from Dwarkawala Website via Rest API and separate logins for </tspan><tspan fill="#000000" font-weight="400" font-size="11" x="11.7896" y="438">customers and merchants</tspan><tspan fill="#000000" font-weight="400" font-size="11" x="-0.543732" y="451">–</tspan><tspan fill="#000000" font-weight="400" font-size="11" x="11.7896" y="451">Tech Stack: </tspan><tspan fill="#000000" font-size="11" x="67.123" y="451">Firebase, Retrofit, WordPress APIs </tspan><tspan fill="#000000" font-weight="400" font-size="11" x="234.123" y="451">and</tspan><tspan fill="#000000" font-size="11" x="253.456" y="451">MVC </tspan><tspan fill="#000000" font-weight="400" font-size="11" x="280.123" y="451">architecture. </tspan><tspan fill="#A6A6A6" font-weight="400" font-size="11" x="339.912" y="379">Jun</tspan><tspan fill="#A6A6A6" font-weight="400" font-size="11" x="356.579" y="379">-</tspan><tspan fill="#A6A6A6" font-weight="400" font-size="11" x="360.245" y="379">Aug (2018)</tspan><tspan font-size="13" x="-0.54361" y="610">WALLSET OFFICIAL</tspan><tspan fill="#A6A6A6" font-weight="400" font-size="11" x="-0.54361" y="625">AI OpenGL Live Wallpaper Changer  |  PlayStore </tspan><tspan fill="#000000" font-weight="400" font-size="11" x="-0.543732" y="645">–</tspan><tspan fill="#000000" font-weight="400" font-size="11" x="11.7896" y="645">Designed and Developed OpenGL live wallpaper with machine learning models to </tspan><tspan fill="#000000" font-weight="400" font-size="11" x="11.7896" y="657">automate the mess of cropping &amp; changing a set of wallpaper manually. </tspan><tspan fill="#000000" font-weight="400" font-size="11" x="-0.543732" y="670">–</tspan><tspan fill="#000000" font-weight="400" font-size="11" x="11.7896" y="670">Highly optimized for low end devices with less memory and battery consumption.</tspan><tspan fill="#000000" font-weight="400" font-size="11" x="-0.543732" y="683">–</tspan><tspan fill="#000000" font-weight="400" font-size="11" x="11.7896" y="683">Tech Stack: </tspan><tspan fill="#000000" font-size="11" x="67.123" y="683">Supabase, RxJava3, Jetpack Components, OpenGL ES3, TensorFlow Lite </tspan><tspan fill="#000000" font-size="11" x="11.7896" y="696">Models </tspan><tspan fill="#000000" font-weight="400" font-size="11" x="48.9563" y="696">and</tspan><tspan fill="#000000" font-size="11" x="68.2896" y="696">MVVM </tspan><tspan fill="#000000" font-weight="400" font-size="11" x="105.29" y="696">architecture</tspan><tspan fill="#000000" font-size="11" x="163.29" y="696">.</tspan><tspan fill="#A6A6A6" font-weight="400" font-size="11" x="-264.671" y="132">Programming Languages</tspan></text><rect x="15" y="286" width="60" height="21" fill="#404040"/><text fill="#FFFFFF" font-family="Lato,Lato_MSFontService,sans-serif" font-weight="400" font-size="11" transform="translate(34.7227 300)">Java</text><rect x="79" y="286" width="67" height="21" fill="#404040"/><text fill="#FFFFFF" font-family="Lato,Lato_MSFontService,sans-serif" font-weight="400" font-size="11" transform="translate(100.398 301)">C++</text><rect x="151" y="286" width="60" height="21" fill="#404040"/><text fill="#FFFFFF" font-family="Lato,Lato_MSFontService,sans-serif" font-weight="400" font-size="11" transform="translate(168.189 301)">Kotlin</text><rect x="15" y="313" width="60" height="21" fill="#404040"/><text fill="#FFFFFF" font-family="Lato,Lato_MSFontService,sans-serif" font-weight="400" font-size="11" transform="translate(34.6756 327)">Dart</text><rect x="80" y="313" width="53" height="21" fill="#404040"/><text fill="#FFFFFF" font-family="Lato,Lato_MSFontService,sans-serif" font-weight="400" font-size="11" transform="translate(97.6899 327)">SQL</text><rect x="138" y="313" width="53" height="21" fill="#404040"/><text fill="#FFFFFF" font-family="Lato,Lato_MSFontService,sans-serif" font-weight="400" font-size="11" transform="translate(151.946 327)">HTML</text><rect x="195" y="313" width="54" height="21" fill="#404040"/><text fill="#FFFFFF" font-family="Lato,Lato_MSFontService,sans-serif" font-weight="400" font-size="11" transform="translate(212.869 328)">CSS</text><rect x="15" y="340" width="67" height="21" fill="#404040"/><text fill="#FFFFFF" font-family="Lato,Lato_MSFontService,sans-serif" font-weight="400" font-size="11" transform="translate(32.6091 355)">Python<tspan fill="#A6A6A6" font-size="11" x="-17.0866" y="40">Frameworks / Libraries</tspan></text><rect x="16" y="404" width="101" height="21" fill="#404040"/><text fill="#FFFFFF" font-family="Lato,Lato_MSFontService,sans-serif" font-weight="400" font-size="11" transform="translate(28.049 418)">Android Jetpack</text><rect x="185" y="405" width="60" height="21" fill="#404040"/><text fill="#FFFFFF" font-family="Lato,Lato_MSFontService,sans-serif" font-weight="400" font-size="11" transform="translate(197.363 420)">Retrofit</text><rect x="15" y="430" width="55" height="21.9999" fill="#404040"/><text fill="#FFFFFF" font-family="Lato,Lato_MSFontService,sans-serif" font-weight="400" font-size="11" transform="translate(27.5595 445)">RxJava</text><rect x="74" y="430" width="60" height="22" fill="#404040"/><text fill="#FFFFFF" font-family="Lato,Lato_MSFontService,sans-serif" font-weight="400" font-size="11" transform="translate(86.3678 445)">Dagger2</text><rect x="139" y="430" width="48" height="22" fill="#404040"/><text fill="#FFFFFF" font-family="Lato,Lato_MSFontService,sans-serif" font-weight="400" font-size="11" transform="translate(151.124 445)">Flask</text><rect x="191" y="430" width="55" height="21" fill="#404040"/><text fill="#FFFFFF" font-family="Lato,Lato_MSFontService,sans-serif" font-weight="400" font-size="11" transform="translate(202.801 444)">SQLite</text><rect x="80" y="457" width="60" height="22" fill="#404040"/><text fill="#FFFFFF" font-family="Lato,Lato_MSFontService,sans-serif" font-weight="400" font-size="11" transform="translate(92.8405 472)">MVVM</text><rect x="145" y="457" width="79" height="22" fill="#404040"/><text fill="#FFFFFF" font-family="Lato,Lato_MSFontService,sans-serif" font-weight="400" font-size="11" transform="translate(157.213 471)">MVP / MVC</text><rect x="16" y="457" width="60" height="21" fill="#404040"/><text fill="#FFFFFF" font-family="Lato,Lato_MSFontService,sans-serif" font-weight="400" font-size="11" transform="translate(28.4143 471)">OpenGL</text><rect x="121" y="404" width="60" height="22" fill="#404040"/><text fill="#FFFFFF" font-family="Lato,Lato_MSFontService,sans-serif" font-weight="400" font-size="11" transform="translate(133.225 419)">Flutter<tspan fill="#A6A6A6" font-size="11" x="-118.095" y="93">Dev Tools</tspan></text><rect x="15" y="520" width="97" height="22" fill="#404040"/><text fill="#FFFFFF" font-family="Lato,Lato_MSFontService,sans-serif" font-weight="400" font-size="11" transform="translate(27.7367 534)">Android Studio</text><rect x="116" y="520" width="66" height="22" fill="#404040"/><text fill="#FFFFFF" font-family="Lato,Lato_MSFontService,sans-serif" font-weight="400" font-size="11" transform="translate(128.897 534)">VS Code</text><rect x="15" y="549" width="79" height="21" fill="#404040"/><text fill="#FFFFFF" font-family="Lato,Lato_MSFontService,sans-serif" font-weight="400" font-size="11" transform="translate(27.3078 563)">Intellij IDEA</text><rect x="169" y="549" width="55" height="21" fill="#404040"/><text fill="#FFFFFF" font-family="Lato,Lato_MSFontService,sans-serif" font-weight="400" font-size="11" transform="translate(181.516 563)">Figma</text><rect x="99" y="549" width="66" height="21" fill="#404040"/><text fill="#FFFFFF" font-family="Lato,Lato_MSFontService,sans-serif" font-weight="400" font-size="11" transform="translate(111.272 563)">Postman</text><rect x="76" y="577" width="117" height="21" fill="#404040"/><text fill="#FFFFFF" font-family="Lato,Lato_MSFontService,sans-serif" font-weight="400" font-size="11" transform="translate(88.4568 591)">Git / GitHub / GitLab</text><rect x="187" y="520" width="57" height="22" fill="#404040"/><text fill="#FFFFFF" font-family="Lato,Lato_MSFontService,sans-serif" font-weight="400" font-size="11" transform="translate(198.421 535)">Docker</text><rect x="16" y="577" width="55" height="21" fill="#404040"/><text fill="#FFFFFF" font-family="Lato,Lato_MSFontService,sans-serif" font-weight="400" font-size="11" transform="translate(28.049 591)">Sketch<tspan fill="#A6A6A6" font-size="11" x="-12.0655" y="256">2016</tspan><tspan font-size="11" x="-12.0655" y="225">Kendriya Vidyalaya Sector 5 Dwarka</tspan><tspan font-size="11" x="-12.0655" y="237">New</tspan><tspan font-size="11" x="11.7678" y="237">Delh</tspan>i<tspan fill="#00B0F0" font-weight="700" font-size="13" x="-12.0655" y="210">CLASS 12 CBSE (PCM)</tspan><tspan fill="#A6A6A6" font-size="11" x="167.08" y="256">6.8 </tspan><tspan fill="#A6A6A6" font-size="11" x="183.747" y="256">CGPA</tspan><tspan fill="#A6A6A6" font-size="11" x="-11.7656" y="348">2014</tspan><tspan font-size="11" x="-11.7656" y="318">Kendriya Vidyalaya Sector 5 Dwarka</tspan><tspan font-size="11" x="-11.7656" y="330">New Delhi</tspan><tspan fill="#00B0F0" font-weight="700" font-size="13" x="-11.7656" y="302">CLASS 10 CBSE</tspan><tspan fill="#A6A6A6" font-size="11" x="167.38" y="349">8</tspan><tspan fill="#A6A6A6" font-size="11" x="173.547" y="349">.8 </tspan><tspan fill="#A6A6A6" font-size="11" x="184.047" y="349">CGPA</tspan></text></g></svg>