<svg width="853" height="1196" viewBox="0 0 853 1196" fill="none" xmlns="http://www.w3.org/2000/svg">
<path fill-rule="evenodd" clip-rule="evenodd" d="M79.541 0H317H531H535H768.459C812.339 0 847.91 35.5716 847.91 79.4514V1116.46C847.91 1160.34 812.339 1195.91 768.459 1195.91H535V1196H317V1195.91H79.541C35.6609 1195.91 0.0900879 1160.34 0.0900879 1116.46V79.4501C0.0900879 35.5701 35.6611 0 79.541 0ZM317 1168H531V1167.96H768.459C796.899 1167.96 819.955 1144.9 819.955 1116.46V79.4513C819.955 51.0107 796.899 27.9551 768.459 27.9551H535V28H317V27.9501H79.541C51.1011 27.9501 28.0449 51.0101 28.0449 79.4501V1116.46C28.0449 1144.9 51.1011 1167.95 79.541 1167.95H317V1168ZM848 255.994H853V423.994H848V255.994ZM853 482.994H848V559.994H853V482.994Z" fill="black"/>
</svg>
