<svg width="512" height="512" viewBox="0 0 512 512" fill="none" xmlns="http://www.w3.org/2000/svg">
<g clip-path="url(#clip0)">
<path d="M374.63 207.163C374.628 203.012 373.74 199.344 371.945 196.196C370.182 193.101 367.541 190.507 363.998 188.455C334.758 171.595 305.489 154.787 276.259 137.909C268.378 133.36 260.738 133.526 252.915 138.141C241.277 145.004 183.007 178.388 165.643 188.446C158.493 192.585 155.013 198.921 155.011 207.155C155 241.062 155.011 274.968 155 308.875C155.002 312.935 155.852 316.531 157.568 319.632C159.332 322.821 162.01 325.487 165.634 327.585C182.998 337.642 241.276 371.023 252.912 377.889C260.738 382.506 268.378 382.671 276.261 378.12C305.493 361.242 334.763 344.434 364.008 327.574C367.632 325.477 370.31 322.81 372.074 319.623C373.787 316.523 374.639 312.926 374.641 308.866C374.641 308.866 374.641 241.07 374.63 207.163" fill="#5C8DBC"/>
<path d="M265.155 257.691L157.566 319.638C159.331 322.827 162.009 325.493 165.633 327.591C182.997 337.648 241.275 371.03 252.911 377.895C260.736 382.513 268.377 382.678 276.26 378.126C305.491 361.248 334.762 344.441 364.006 327.58C367.63 325.484 370.308 322.816 372.072 319.63L265.155 257.691" fill="#1A4674"/>
<path d="M233.289 276.04C239.55 286.97 251.319 294.342 264.82 294.342C278.404 294.342 290.24 286.876 296.469 275.83L265.156 257.691L233.289 276.04" fill="#1A4674"/>
<path d="M374.63 207.17C374.628 203.019 373.74 199.351 371.945 196.203L265.157 257.692L372.074 319.63C373.788 316.53 374.639 312.933 374.641 308.873C374.641 308.873 374.641 241.077 374.63 207.17" fill="#1B598E"/>
<path d="M368.751 262.119H360.396V270.476H352.04V262.119H343.686V253.765H352.04V245.411H360.396V253.765H368.751V262.119ZM338.265 262.119H329.911V270.476H321.556V262.119H313.201V253.765H321.556V245.411H329.911V253.765H338.265V262.119Z" fill="white"/>
<path d="M296.47 275.83C290.241 286.876 278.405 294.341 264.821 294.341C251.32 294.341 239.551 286.97 233.29 276.04C230.145 270.556 228.494 264.343 228.5 258.021C228.5 237.962 244.762 221.701 264.821 221.701C278.235 221.701 289.942 228.981 296.234 239.799L327.98 221.518C315.362 199.736 291.803 185.082 264.821 185.082C224.537 185.082 191.881 217.739 191.881 258.021C191.881 271.236 195.397 283.629 201.542 294.319C214.128 316.216 237.753 330.96 264.821 330.96C291.938 330.96 315.6 316.157 328.169 294.195L296.47 275.83Z" fill="white"/>
</g>
<defs>
<clipPath id="clip0">
<rect width="220" height="247.525" fill="white" transform="translate(155 134.363)"/>
</clipPath>
</defs>
</svg>
