<svg width="512" height="512" viewBox="0 0 512 512" fill="none" xmlns="http://www.w3.org/2000/svg">
<g clip-path="url(#clip0)">
<path d="M195.56 208.98L180.365 193.778L180.424 303.578L180.608 308.704C180.681 311.128 181.14 313.845 181.875 316.672L302.22 359.119L332.33 345.79L332.355 345.746L195.552 208.98H195.56Z" fill="#00C4B3"/>
<path d="M181.879 316.671H181.89C181.879 316.627 181.86 316.575 181.838 316.524C181.864 316.579 181.864 316.634 181.875 316.671H181.879ZM332.301 345.789L302.191 359.118L181.864 316.671C184.159 325.498 189.252 335.419 194.723 340.832L233.975 379.889L321.322 380L332.264 345.789H332.301Z" fill="#22D3C5"/>
<path d="M180.775 193.784L133.984 264.449C130.099 268.598 132.038 277.161 138.291 283.469L165.302 310.7L182.281 316.685C181.546 313.865 181.083 311.177 181.014 308.717L180.83 303.591L180.775 193.791V193.784Z" fill="#0075C9"/>
<path d="M303.211 195.196C300.384 194.48 297.674 194.029 295.233 193.959L289.805 193.761L180.365 193.786L332.351 345.751L345.702 315.641L303.219 195.204L303.211 195.196Z" fill="#0075C9"/>
<path d="M303.071 195.168C303.119 195.186 303.17 195.197 303.211 195.205V195.19C303.163 195.179 303.119 195.179 303.071 195.161V195.168ZM327.361 208.086C321.835 202.523 312.049 197.437 303.211 195.205L345.694 315.631L332.329 345.741L364.942 335.32L365.016 245.902L327.357 208.082L327.361 208.086Z" fill="#00A8E1"/>
<path d="M297.255 178.322L270.083 151.297C263.746 145.066 255.183 143.12 251.071 146.997L180.409 193.777L289.849 193.751L295.276 193.949C297.718 194.023 300.432 194.471 303.255 195.187L297.263 178.315L297.255 178.322Z" fill="#00C4B3"/>
</g>
<defs>
<clipPath id="clip0">
<rect width="235" height="235" fill="white" transform="translate(131 145)"/>
</clipPath>
</defs>
</svg>
