<svg width="513" height="512" viewBox="0 0 513 512" fill="none" xmlns="http://www.w3.org/2000/svg">
<path d="M225.601 363.198C242.39 363.198 256.001 349.588 256.001 332.798V302.398H225.601C208.811 302.398 195.201 316.009 195.201 332.798C195.201 349.588 208.811 363.198 225.601 363.198Z" fill="#0ACF83"/>
<path d="M195.201 272.002C195.201 255.212 208.811 241.602 225.601 241.602H256.001V302.402H225.601C208.811 302.402 195.201 288.791 195.201 272.002Z" fill="#A259FF"/>
<path d="M195.201 211.199C195.201 194.41 208.811 180.799 225.601 180.799H256.001V241.599H225.601C208.811 241.599 195.201 227.988 195.201 211.199Z" fill="#F24E1E"/>
<path d="M256 180.799H286.4C303.189 180.799 316.799 194.41 316.799 211.199C316.799 227.988 303.189 241.599 286.4 241.599H256V180.799Z" fill="#FF7262"/>
<path d="M316.799 272.002C316.799 288.791 303.189 302.402 286.4 302.402C269.61 302.402 256 288.791 256 272.002C256 255.212 269.61 241.602 286.4 241.602C303.189 241.602 316.799 255.212 316.799 272.002Z" fill="#1ABCFE"/>
</svg>
