<svg width="513" height="512" viewBox="0 0 513 512" fill="none" xmlns="http://www.w3.org/2000/svg">
<path d="M148.42 148.419H363.58V363.581H148.42V148.419Z" fill="#F0DB4F"/>
<path d="M345.971 312.266C344.395 302.45 337.994 294.205 319.035 286.517C312.448 283.49 305.106 281.323 302.918 276.332C302.141 273.427 302.038 271.791 302.529 270.032C303.941 264.326 310.752 262.547 316.151 264.184C319.628 265.349 322.919 268.028 324.904 272.303C334.189 266.291 334.17 266.33 340.653 262.198C338.279 258.519 337.013 256.82 335.459 255.246C329.875 249.009 322.266 245.796 310.097 246.042L303.758 246.862C297.684 248.397 291.896 251.585 288.501 255.86C278.316 267.417 281.22 287.643 293.614 295.967C305.824 305.131 323.761 307.216 326.052 315.786C328.281 326.277 318.342 329.673 308.463 328.467C301.182 326.952 297.133 323.252 292.755 316.523C284.697 321.186 284.697 321.186 276.413 325.95C278.378 330.245 280.442 332.189 283.735 335.91C299.321 351.72 338.322 350.943 345.318 327.014C345.601 326.193 347.485 320.713 345.971 312.266V312.266ZM265.387 247.309H245.262L245.18 299.339C245.18 310.404 245.752 320.548 243.953 323.657C241.008 329.773 233.379 329.015 229.902 327.829C226.363 326.09 224.563 323.616 222.479 320.12C221.906 319.117 221.477 318.34 221.332 318.28L204.97 328.3C207.691 333.884 211.699 338.731 216.833 341.88C224.502 346.482 234.809 347.894 245.589 345.419C252.605 343.375 258.658 339.142 261.828 332.698C266.41 324.25 265.427 314.026 265.386 302.716C265.489 284.265 265.387 265.818 265.387 247.309Z" fill="#323330"/>
</svg>
