<svg width="512" height="512" viewBox="0 0 512 512" fill="none" xmlns="http://www.w3.org/2000/svg">
<path d="M154.159 225.666C154.159 225.666 149.057 221.988 155.18 217.077L169.445 204.321C169.445 204.321 173.527 200.026 177.843 203.768L309.488 303.437V351.231C309.488 351.231 309.424 358.736 299.793 357.906L154.159 225.666Z" fill="#2489CA"/>
<path d="M188.093 256.472L154.161 287.321C154.161 287.321 150.674 289.915 154.161 294.55L169.915 308.879C169.915 308.879 173.657 312.897 179.185 308.326L215.157 281.049L188.093 256.472Z" fill="#1070B3"/>
<path d="M247.663 256.728L309.892 209.211L309.488 161.672C309.488 161.672 306.831 151.297 297.965 156.697L215.156 232.066L247.663 256.728Z" fill="#0877B9"/>
<path d="M299.793 357.97C303.407 361.669 307.787 360.457 307.787 360.457L356.282 336.56C362.49 332.33 361.618 327.078 361.618 327.078V184.378C361.618 178.106 355.197 175.938 355.197 175.938L313.166 155.677C303.981 150 297.964 156.697 297.964 156.697C297.964 156.697 305.703 151.127 309.488 161.672V350.358C309.488 351.655 309.211 352.931 308.658 354.079C307.553 356.311 305.15 358.395 299.389 357.523L299.793 357.97Z" fill="#3C99D4"/>
</svg>
