<svg width="180" height="54" viewBox="0 0 180 54" fill="none" xmlns="http://www.w3.org/2000/svg">
<path d="M173.333 53.3334H6.66667C3 53.3334 0 50.3334 0 46.6667V6.66671C0 3.00004 3 4.57764e-05 6.66667 4.57764e-05H173.333C177 4.57764e-05 180 3.00004 180 6.66671V46.6667C180 50.3334 177 53.3334 173.333 53.3334Z" fill="white"/>
<path d="M52.5872 41.874V26.0902H57.4149C59.8251 26.0902 61.7577 26.8177 63.2126 28.2726C64.6823 29.7275 65.4171 31.6307 65.4171 33.9821C65.4171 36.3482 64.6823 38.2587 63.2126 39.7137C61.7577 41.1539 59.8251 41.874 57.4149 41.874H52.5872ZM54.6153 28.0301V39.9341H57.4149C59.252 39.9341 60.6996 39.4124 61.7577 38.369C62.8158 37.3108 63.3449 35.8485 63.3449 33.9821C63.3449 32.1304 62.8158 30.6754 61.7577 29.6173C60.6996 28.5592 59.252 28.0301 57.4149 28.0301H54.6153ZM69.0737 41.874H67.0456V31.0722H68.9855V32.8358H69.0737C69.2794 32.2626 69.6983 31.7777 70.3302 31.3809C70.9769 30.9694 71.6088 30.7636 72.226 30.7636C72.8139 30.7636 73.3136 30.8518 73.7251 31.0282L73.1078 32.9901C72.858 32.8872 72.4612 32.8358 71.9174 32.8358C71.1532 32.8358 70.4845 33.1444 69.9114 33.7617C69.3529 34.3789 69.0737 35.099 69.0737 35.922V41.874ZM77.6772 27.3467C77.6772 27.7435 77.5376 28.0815 77.2584 28.3608C76.9791 28.64 76.6411 28.7796 76.2443 28.7796C75.8475 28.7796 75.5095 28.64 75.2303 28.3608C74.9511 28.0815 74.8114 27.7435 74.8114 27.3467C74.8114 26.9499 74.9511 26.6119 75.2303 26.3327C75.5095 26.0535 75.8475 25.9138 76.2443 25.9138C76.6411 25.9138 76.9791 26.0535 77.2584 26.3327C77.5376 26.6119 77.6772 26.9499 77.6772 27.3467ZM77.2584 31.0722V41.874H75.2303V31.0722H77.2584ZM85.6072 42.2267C84.8136 42.2267 84.0861 42.0577 83.4248 41.7197C82.7782 41.3817 82.2785 40.9335 81.9258 40.375H81.8376V41.874H79.8977V26.0902H81.9258V31.0722L81.8376 32.5713H81.9258C82.2785 32.0128 82.7782 31.5646 83.4248 31.2266C84.0861 30.8885 84.8136 30.7195 85.6072 30.7195C87.0327 30.7195 88.2378 31.278 89.2225 32.3949C90.2365 33.5265 90.7436 34.8859 90.7436 36.4731C90.7436 38.075 90.2365 39.4344 89.2225 40.5514C88.2378 41.6683 87.0327 42.2267 85.6072 42.2267ZM85.2765 40.375C86.2465 40.375 87.0621 40.0076 87.7235 39.2728C88.3848 38.5527 88.7155 37.6194 88.7155 36.4731C88.7155 35.3415 88.3848 34.4083 87.7235 33.6735C87.0621 32.9387 86.2465 32.5713 85.2765 32.5713C84.2919 32.5713 83.4689 32.9387 82.8076 33.6735C82.1609 34.4083 81.8376 35.3415 81.8376 36.4731C81.8376 37.6194 82.1609 38.56 82.8076 39.2948C83.4689 40.0149 84.2919 40.375 85.2765 40.375ZM98.2009 42.2267C97.4073 42.2267 96.6799 42.0577 96.0185 41.7197C95.3719 41.3817 94.8722 40.9335 94.5195 40.375H94.4313V41.874H92.4914V26.0902H94.5195V31.0722L94.4313 32.5713H94.5195C94.8722 32.0128 95.3719 31.5646 96.0185 31.2266C96.6799 30.8885 97.4073 30.7195 98.2009 30.7195C99.6265 30.7195 100.832 31.278 101.816 32.3949C102.83 33.5265 103.337 34.8859 103.337 36.4731C103.337 38.075 102.83 39.4344 101.816 40.5514C100.832 41.6683 99.6265 42.2267 98.2009 42.2267ZM97.8703 40.375C98.8402 40.375 99.6559 40.0076 100.317 39.2728C100.979 38.5527 101.309 37.6194 101.309 36.4731C101.309 35.3415 100.979 34.4083 100.317 33.6735C99.6559 32.9387 98.8402 32.5713 97.8703 32.5713C96.8856 32.5713 96.0626 32.9387 95.4013 33.6735C94.7547 34.4083 94.4313 35.3415 94.4313 36.4731C94.4313 37.6194 94.7547 38.56 95.4013 39.2948C96.0626 40.0149 96.8856 40.375 97.8703 40.375ZM107.113 26.0902V41.874H105.085V26.0902H107.113ZM114.327 42.2267C112.739 42.2267 111.431 41.683 110.403 40.5954C109.374 39.5079 108.86 38.1338 108.86 36.4731C108.86 34.8271 109.359 33.4604 110.359 32.3729C111.358 31.2706 112.637 30.7195 114.194 30.7195C115.796 30.7195 117.067 31.2413 118.008 32.2847C118.963 33.3134 119.441 34.761 119.441 36.6274L119.419 36.8479H110.932C110.961 37.906 111.314 38.7584 111.99 39.405C112.666 40.0517 113.474 40.375 114.415 40.375C115.708 40.375 116.722 39.7284 117.457 38.4351L119.265 39.3169C118.78 40.228 118.104 40.9408 117.236 41.4552C116.384 41.9695 115.414 42.2267 114.327 42.2267ZM111.086 35.1725H117.281C117.222 34.423 116.913 33.8058 116.355 33.3208C115.811 32.8211 115.076 32.5713 114.15 32.5713C113.386 32.5713 112.725 32.8064 112.166 33.2767C111.623 33.747 111.262 34.3789 111.086 35.1725ZM135.354 41.874H126.492V26.0902H128.52V39.9341H135.354V41.874ZM139.742 27.3467C139.742 27.7435 139.602 28.0815 139.323 28.3608C139.044 28.64 138.706 28.7796 138.309 28.7796C137.912 28.7796 137.574 28.64 137.295 28.3608C137.016 28.0815 136.876 27.7435 136.876 27.3467C136.876 26.9499 137.016 26.6119 137.295 26.3327C137.574 26.0535 137.912 25.9138 138.309 25.9138C138.706 25.9138 139.044 26.0535 139.323 26.3327C139.602 26.6119 139.742 26.9499 139.742 27.3467ZM139.323 31.0722V41.874H137.295V31.0722H139.323ZM141.962 31.0722H143.902V32.5713H143.99C144.299 32.0422 144.769 31.6013 145.401 31.2486C146.048 30.8959 146.717 30.7195 147.407 30.7195C148.73 30.7195 149.744 31.1016 150.449 31.8658C151.169 32.6154 151.53 33.6882 151.53 35.0843V41.874H149.501V35.2166C149.457 33.453 148.568 32.5713 146.834 32.5713C146.026 32.5713 145.35 32.9019 144.806 33.5633C144.262 34.2099 143.99 34.9888 143.99 35.9V41.874H141.962V31.0722ZM163.411 41.874H160.964L157.592 36.7818L155.938 38.413V41.874H153.91V26.0902H155.938V35.8118L160.612 31.0722H163.213V31.1604L159.002 35.3489L163.411 41.7858V41.874Z" fill="black"/>
<path d="M52.8524 20V11.5235H55.4451C56.7394 11.5235 57.7773 11.9142 58.5586 12.6955C59.3479 13.4769 59.7425 14.499 59.7425 15.7618C59.7425 17.0324 59.3479 18.0585 58.5586 18.8398C57.7773 19.6133 56.7394 20 55.4451 20H52.8524ZM53.9415 12.5653V18.9582H55.4451C56.4316 18.9582 57.209 18.678 57.7773 18.1176C58.3455 17.5494 58.6297 16.7641 58.6297 15.7618C58.6297 14.7673 58.3455 13.9859 57.7773 13.4177C57.209 12.8494 56.4316 12.5653 55.4451 12.5653H53.9415ZM65.9863 11.5235V12.5653H62.1269V15.2527H65.6075V16.2708H62.1269V18.9582H65.9863V20H61.0377V11.5235H65.9863ZM72.6869 17.7388C72.6869 18.4807 72.4146 19.0766 71.87 19.5265C71.3176 19.9684 70.6467 20.1894 69.8575 20.1894C69.155 20.1894 68.5355 19.9842 67.9988 19.5738C67.4621 19.1634 67.0911 18.603 66.8859 17.8927L67.9277 17.4665C67.9988 17.7191 68.0974 17.948 68.2237 18.1532C68.35 18.3584 68.496 18.5359 68.6617 18.6859C68.8354 18.828 69.0248 18.9424 69.23 19.0292C69.4352 19.1082 69.6522 19.1476 69.8811 19.1476C70.3784 19.1476 70.7848 19.0213 71.1005 18.7688C71.4162 18.5083 71.5741 18.165 71.5741 17.7388C71.5741 17.3837 71.4438 17.0798 71.1834 16.8272C70.9387 16.5826 70.481 16.3458 69.8101 16.1169C69.1313 15.8722 68.7091 15.7065 68.5434 15.6197C67.6436 15.1619 67.1937 14.4871 67.1937 13.5953C67.1937 12.9718 67.4424 12.439 67.9396 11.997C68.4447 11.5551 69.0643 11.3341 69.7983 11.3341C70.4454 11.3341 71.0058 11.4998 71.4794 11.8313C71.9529 12.1549 72.2686 12.5614 72.4264 13.0507L71.4083 13.4769C71.3136 13.1612 71.1242 12.9007 70.8401 12.6955C70.5638 12.4824 70.2245 12.3759 69.8219 12.3759C69.3957 12.3759 69.0366 12.4943 68.7446 12.731C68.4526 12.952 68.3066 13.2401 68.3066 13.5953C68.3066 13.8873 68.421 14.1399 68.6499 14.3529C68.9025 14.566 69.451 14.8186 70.2955 15.1106C71.1558 15.4026 71.7674 15.7618 72.1305 16.1879C72.5014 16.6062 72.6869 17.1232 72.6869 17.7388ZM75.087 20H73.9978V11.5235H75.087V20ZM84.8369 16.1051C84.8369 17.2889 84.4857 18.2321 83.7833 18.9345C82.994 19.7711 81.9562 20.1894 80.6697 20.1894C79.4385 20.1894 78.3967 19.7632 77.5443 18.9108C76.6919 18.0585 76.2657 17.0088 76.2657 15.7618C76.2657 14.5147 76.6919 13.465 77.5443 12.6127C78.3967 11.7603 79.4385 11.3341 80.6697 11.3341C81.2932 11.3341 81.8812 11.4446 82.4336 11.6656C82.9861 11.8866 83.4399 12.1983 83.7951 12.6008L83.0137 13.3822C82.7533 13.0665 82.4139 12.8218 81.9956 12.6482C81.5852 12.4667 81.1432 12.3759 80.6697 12.3759C79.7463 12.3759 78.9649 12.6955 78.3256 13.3348C77.6942 13.982 77.3785 14.791 77.3785 15.7618C77.3785 16.7325 77.6942 17.5415 78.3256 18.1887C78.9649 18.828 79.7463 19.1476 80.6697 19.1476C81.5142 19.1476 82.2166 18.9108 82.777 18.4373C83.3373 17.9637 83.6609 17.3126 83.7477 16.4839H80.6697V15.4658H84.7777C84.8172 15.6868 84.8369 15.8999 84.8369 16.1051ZM87.2494 20H86.1602V11.5235H87.4862L91.606 18.1176H91.6534L91.606 16.4839V11.5235H92.6952V20H91.5587L87.2494 13.0862H87.202L87.2494 14.7199V20Z" fill="black"/>
<path d="M22.6968 10.1484C19.871 10.5548 17.1355 11.7032 14.8129 13.6194L19.8065 18.6129C21.6 16.3032 22.6 13.3742 22.6968 10.1484V10.1484ZM25 23.8065L35.1871 13.6194C32.4516 11.3613 29.1484 10.1677 25.8 10C25.7226 14.1226 24.4129 17.8903 22.0129 20.8194L25 23.8065ZM12.6194 15.8129C10.7032 18.1355 9.55484 20.871 9.14839 23.6968C12.3742 23.6 15.3097 22.6 17.6129 20.8065L12.6194 15.8129ZM30.1806 28.9871C33.1032 26.5935 36.871 25.2839 41 25.2C40.8323 21.8516 39.6387 18.5484 37.3806 15.8129L27.1935 26L30.1806 28.9871V28.9871ZM25 28.1935L14.8129 38.3806C17.5484 40.6323 20.8516 41.8323 24.2 42C24.2839 37.871 25.5935 34.1032 27.9871 31.1806L25 28.1935ZM37.3806 36.1871C39.2968 33.8645 40.4452 31.129 40.8516 28.3032C37.6194 28.4065 34.6903 29.4065 32.3871 31.1935L37.3806 36.1871ZM19.8194 23.0129C16.8903 25.4129 13.1226 26.729 9 26.8C9.16774 30.1484 10.3613 33.4516 12.6194 36.1871L22.8065 26L19.8194 23.0129ZM27.3032 41.8516C30.129 41.4452 32.8645 40.2968 35.1871 38.3806L30.1935 33.3871C28.4065 35.6903 27.4065 38.6258 27.3032 41.8516Z" fill="#EA4C89"/>
</svg>
