<svg width="180" height="54" viewBox="0 0 180 54" fill="none" xmlns="http://www.w3.org/2000/svg">
<path d="M173.333 53.3334H6.66667C3 53.3334 0 50.3334 0 46.6667V6.66671C0 3.00004 3 4.57764e-05 6.66667 4.57764e-05H173.333C177 4.57764e-05 180 3.00004 180 6.66671V46.6667C180 50.3334 177 53.3334 173.333 53.3334Z" fill="white"/>
<path d="M52.5872 42.874V27.0902H57.4149C59.8251 27.0902 61.7577 27.8177 63.2126 29.2726C64.6823 30.7275 65.4171 32.6307 65.4171 34.9821C65.4171 37.3482 64.6823 39.2587 63.2126 40.7137C61.7577 42.1539 59.8251 42.874 57.4149 42.874H52.5872ZM54.6153 29.0301V40.9341H57.4149C59.252 40.9341 60.6996 40.4124 61.7577 39.369C62.8158 38.3108 63.3449 36.8485 63.3449 34.9821C63.3449 33.1304 62.8158 31.6754 61.7577 30.6173C60.6996 29.5592 59.252 29.0301 57.4149 29.0301H54.6153ZM72.003 43.2267C70.4158 43.2267 69.1078 42.683 68.0791 41.5954C67.0504 40.5079 66.536 39.1338 66.536 37.4731C66.536 35.8271 67.0357 34.4604 68.035 33.3729C69.0344 32.2706 70.3129 31.7195 71.8708 31.7195C73.4726 31.7195 74.7439 32.2413 75.6844 33.2847C76.6397 34.3134 77.1173 35.761 77.1173 37.6274L77.0953 37.8479H68.6082C68.6376 38.906 68.9903 39.7584 69.6663 40.405C70.3423 41.0517 71.1506 41.375 72.0912 41.375C73.3845 41.375 74.3985 40.7284 75.1333 39.4351L76.941 40.3169C76.456 41.228 75.78 41.9408 74.9129 42.4552C74.0605 42.9695 73.0905 43.2267 72.003 43.2267ZM68.7625 36.1725H74.957C74.8982 35.423 74.5896 34.8058 74.0311 34.3208C73.4873 33.8211 72.7525 33.5713 71.8267 33.5713C71.0625 33.5713 70.4011 33.8064 69.8427 34.2767C69.2989 34.747 68.9388 35.3789 68.7625 36.1725ZM84.2627 41.375C85.2326 41.375 86.0483 41.0076 86.7096 40.2728C87.3709 39.5527 87.7016 38.6194 87.7016 37.4731C87.7016 36.3415 87.3709 35.4083 86.7096 34.6735C86.0483 33.9387 85.2326 33.5713 84.2627 33.5713C83.278 33.5713 82.455 33.9387 81.7937 34.6735C81.147 35.4083 80.8237 36.3415 80.8237 37.4731C80.8237 38.6194 81.147 39.56 81.7937 40.2948C82.455 41.0149 83.278 41.375 84.2627 41.375ZM84.5933 43.2267C83.7997 43.2267 83.0723 43.0577 82.4109 42.7197C81.7643 42.3817 81.2646 41.9335 80.9119 41.375H80.8237L80.9119 42.874V47.6356H78.8838V32.0722H80.8237V33.5713H80.9119C81.2646 33.0128 81.7643 32.5646 82.4109 32.2266C83.0723 31.8885 83.7997 31.7195 84.5933 31.7195C86.0189 31.7195 87.224 32.278 88.2086 33.3949C89.2227 34.5265 89.7297 35.8859 89.7297 37.4731C89.7297 39.075 89.2227 40.4344 88.2086 41.5514C87.224 42.6683 86.0189 43.2267 84.5933 43.2267ZM93.4001 27.0902V42.874H91.372V27.0902H93.4001ZM95.1464 37.4731C95.1464 35.8125 95.6681 34.4383 96.7116 33.3508C97.7697 32.2633 99.0997 31.7195 100.702 31.7195C102.304 31.7195 103.626 32.2633 104.67 33.3508C105.728 34.4383 106.257 35.8125 106.257 37.4731C106.257 39.1485 105.728 40.5226 104.67 41.5954C103.626 42.683 102.304 43.2267 100.702 43.2267C99.0997 43.2267 97.7697 42.683 96.7116 41.5954C95.6681 40.5079 95.1464 39.1338 95.1464 37.4731ZM97.1745 37.4731C97.1745 38.6341 97.5125 39.5747 98.1885 40.2948C98.8646 41.0149 99.7023 41.375 100.702 41.375C101.701 41.375 102.539 41.0149 103.215 40.2948C103.891 39.5747 104.229 38.6341 104.229 37.4731C104.229 36.3268 103.891 35.3936 103.215 34.6735C102.524 33.9387 101.686 33.5713 100.702 33.5713C99.717 33.5713 98.8793 33.9387 98.1885 34.6735C97.5125 35.3936 97.1745 36.3268 97.1745 37.4731ZM117.324 32.0722L110.556 47.6356H108.462L110.975 42.1906L106.522 32.0722H108.727L111.945 39.8319H111.989L115.12 32.0722H117.324ZM120.676 42.874H118.648V32.0722H120.588V33.5713H120.676C120.984 33.0422 121.455 32.6013 122.087 32.2486C122.733 31.8959 123.373 31.7195 124.004 31.7195C124.798 31.7195 125.496 31.9032 126.099 32.2706C126.701 32.6381 127.142 33.1451 127.421 33.7917C128.318 32.4103 129.56 31.7195 131.147 31.7195C132.396 31.7195 133.359 32.1016 134.035 32.8658C134.711 33.6301 135.049 34.7176 135.049 36.1284V42.874H133.021V36.437C133.021 35.423 132.837 34.6955 132.47 34.2546C132.102 33.7991 131.485 33.5713 130.618 33.5713C129.839 33.5713 129.185 33.9019 128.656 34.5633C128.127 35.2246 127.862 36.0035 127.862 36.9V42.874H125.834V36.437C125.834 35.423 125.65 34.6955 125.283 34.2546C124.916 33.7991 124.298 33.5713 123.431 33.5713C122.652 33.5713 121.998 33.9019 121.469 34.5633C120.94 35.2246 120.676 36.0035 120.676 36.9V42.874ZM142.27 43.2267C140.682 43.2267 139.375 42.683 138.346 41.5954C137.317 40.5079 136.803 39.1338 136.803 37.4731C136.803 35.8271 137.302 34.4604 138.302 33.3729C139.301 32.2706 140.58 31.7195 142.137 31.7195C143.739 31.7195 145.011 32.2413 145.951 33.2847C146.906 34.3134 147.384 35.761 147.384 37.6274L147.362 37.8479H138.875C138.904 38.906 139.257 39.7584 139.933 40.405C140.609 41.0517 141.417 41.375 142.358 41.375C143.651 41.375 144.665 40.7284 145.4 39.4351L147.208 40.3169C146.723 41.228 146.047 41.9408 145.18 42.4552C144.327 42.9695 143.357 43.2267 142.27 43.2267ZM139.029 36.1725H145.224C145.165 35.423 144.856 34.8058 144.298 34.3208C143.754 33.8211 143.019 33.5713 142.093 33.5713C141.329 33.5713 140.668 33.8064 140.109 34.2767C139.566 34.747 139.206 35.3789 139.029 36.1725ZM149.239 32.0722H151.179V33.5713H151.267C151.575 33.0422 152.046 32.6013 152.678 32.2486C153.324 31.8959 153.993 31.7195 154.684 31.7195C156.006 31.7195 157.02 32.1016 157.726 32.8658C158.446 33.6154 158.806 34.6882 158.806 36.0843V42.874H156.778V36.2166C156.734 34.453 155.845 33.5713 154.11 33.5713C153.302 33.5713 152.626 33.9019 152.082 34.5633C151.539 35.2099 151.267 35.9888 151.267 36.9V42.874H149.239V32.0722ZM164.903 43.0504C164.022 43.0504 163.287 42.7785 162.699 42.2347C162.126 41.691 161.832 40.9341 161.817 39.9642V33.924H159.921V32.0722H161.817V28.7656H163.845V32.0722H166.491V33.924H163.845V39.3028C163.845 40.0229 163.985 40.5153 164.264 40.7798C164.543 41.0296 164.859 41.1546 165.212 41.1546C165.374 41.1546 165.528 41.1399 165.675 41.1105C165.837 41.0664 165.984 41.0149 166.116 40.9562L166.755 42.7638C166.226 42.9549 165.609 43.0504 164.903 43.0504Z" fill="black"/>
<path d="M61.0092 17.1051C61.0092 18.2889 60.658 19.2321 59.9556 19.9345C59.1663 20.7711 58.1285 21.1894 56.842 21.1894C55.6108 21.1894 54.569 20.7632 53.7166 19.9108C52.8642 19.0585 52.438 18.0088 52.438 16.7618C52.438 15.5147 52.8642 14.465 53.7166 13.6127C54.569 12.7603 55.6108 12.3341 56.842 12.3341C57.4655 12.3341 58.0535 12.4446 58.606 12.6656C59.1585 12.8866 59.6123 13.1983 59.9674 13.6008L59.1861 14.3822C58.9256 14.0665 58.5863 13.8218 58.168 13.6482C57.7575 13.4667 57.3156 13.3759 56.842 13.3759C55.9186 13.3759 55.1373 13.6955 54.498 14.3348C53.8666 14.982 53.5509 15.791 53.5509 16.7618C53.5509 17.7325 53.8666 18.5415 54.498 19.1887C55.1373 19.828 55.9186 20.1476 56.842 20.1476C57.6865 20.1476 58.3889 19.9108 58.9493 19.4373C59.5097 18.9637 59.8333 18.3126 59.9201 17.4839H56.842V16.4658H60.95C60.9895 16.6868 61.0092 16.8999 61.0092 17.1051ZM63.4217 21H62.3326V12.5235H63.4217V16.158H67.66V12.5235H68.7491V21H67.66V17.1761H63.4217V21ZM74.139 17.5668V21H73.0498V12.5235H75.9385C76.6725 12.5235 77.296 12.7682 77.809 13.2575C78.3299 13.7468 78.5903 14.3427 78.5903 15.0451C78.5903 15.7634 78.3299 16.3632 77.809 16.8446C77.3039 17.3261 76.6804 17.5668 75.9385 17.5668H74.139ZM74.139 13.5653V16.525H75.9621C76.3962 16.525 76.7553 16.379 77.0395 16.0869C77.3315 15.7949 77.4775 15.4477 77.4775 15.0451C77.4775 14.6505 77.3315 14.3072 77.0395 14.0152C76.7553 13.7153 76.3962 13.5653 75.9621 13.5653H74.139ZM81.9779 13.8613L80.5927 17.6852H83.4103L82.0252 13.8613H81.9779ZM79.397 21H78.1895L81.3859 12.5235H82.6171L85.8136 21H84.606L83.7892 18.7033H80.2257L79.397 21ZM94.7333 17.1051C94.7333 18.2889 94.3821 19.2321 93.6797 19.9345C92.8904 20.7711 91.8526 21.1894 90.5661 21.1894C89.3349 21.1894 88.2931 20.7632 87.4407 19.9108C86.5883 19.0585 86.1621 18.0088 86.1621 16.7618C86.1621 15.5147 86.5883 14.465 87.4407 13.6127C88.2931 12.7603 89.3349 12.3341 90.5661 12.3341C91.1896 12.3341 91.7776 12.4446 92.33 12.6656C92.8825 12.8866 93.3363 13.1983 93.6915 13.6008L92.9101 14.3822C92.6497 14.0665 92.3103 13.8218 91.892 13.6482C91.4816 13.4667 91.0396 13.3759 90.5661 13.3759C89.6427 13.3759 88.8613 13.6955 88.222 14.3348C87.5906 14.982 87.2749 15.791 87.2749 16.7618C87.2749 17.7325 87.5906 18.5415 88.222 19.1887C88.8613 19.828 89.6427 20.1476 90.5661 20.1476C91.4106 20.1476 92.113 19.9108 92.6734 19.4373C93.2337 18.9637 93.5573 18.3126 93.6441 17.4839H90.5661V16.4658H94.6741C94.7136 16.6868 94.7333 16.8999 94.7333 17.1051ZM101.005 12.5235V13.5653H97.1458V16.2527H100.626V17.2708H97.1458V19.9582H101.005V21H96.0566V12.5235H101.005ZM107.706 18.7388C107.706 19.4807 107.434 20.0766 106.889 20.5265C106.336 20.9684 105.666 21.1894 104.876 21.1894C104.174 21.1894 103.554 20.9842 103.018 20.5738C102.481 20.1634 102.11 19.603 101.905 18.8927L102.947 18.4665C103.018 18.7191 103.116 18.948 103.243 19.1532C103.369 19.3584 103.515 19.5359 103.681 19.6859C103.854 19.828 104.044 19.9424 104.249 20.0292C104.454 20.1082 104.671 20.1476 104.9 20.1476C105.397 20.1476 105.804 20.0213 106.119 19.7688C106.435 19.5083 106.593 19.165 106.593 18.7388C106.593 18.3837 106.463 18.0798 106.202 17.8272C105.958 17.5826 105.5 17.3458 104.829 17.1169C104.15 16.8722 103.728 16.7065 103.562 16.6197C102.663 16.1619 102.213 15.4871 102.213 14.5953C102.213 13.9718 102.461 13.439 102.959 12.997C103.464 12.5551 104.083 12.3341 104.817 12.3341C105.464 12.3341 106.025 12.4998 106.498 12.8313C106.972 13.1549 107.288 13.5614 107.445 14.0507L106.427 14.4769C106.333 14.1612 106.143 13.9007 105.859 13.6955C105.583 13.4824 105.243 13.3759 104.841 13.3759C104.415 13.3759 104.056 13.4943 103.764 13.731C103.472 13.952 103.326 14.2401 103.326 14.5953C103.326 14.8873 103.44 15.1399 103.669 15.3529C103.921 15.566 104.47 15.8186 105.314 16.1106C106.175 16.4026 106.786 16.7618 107.149 17.1879C107.52 17.6062 107.706 18.1232 107.706 18.7388Z" fill="black"/>
<path d="M24.984 11C16.152 11 9 18.168 9 27C9 35.832 16.152 43 24.984 43C33.832 43 41 35.832 41 27C41 18.168 33.832 11 24.984 11ZM36.072 20.6H31.352C30.84 18.6 30.104 16.68 29.144 14.904C32.088 15.912 34.536 17.96 36.072 20.6ZM25 14.264C26.328 16.184 27.368 18.312 28.056 20.6H21.944C22.632 18.312 23.672 16.184 25 14.264ZM12.616 30.2C12.36 29.176 12.2 28.104 12.2 27C12.2 25.896 12.36 24.824 12.616 23.8H18.024C17.896 24.856 17.8 25.912 17.8 27C17.8 28.088 17.896 29.144 18.024 30.2H12.616ZM13.928 33.4H18.648C19.16 35.4 19.896 37.32 20.856 39.096C17.912 38.088 15.464 36.056 13.928 33.4V33.4ZM18.648 20.6H13.928C15.464 17.944 17.912 15.912 20.856 14.904C19.896 16.68 19.16 18.6 18.648 20.6V20.6ZM25 39.736C23.672 37.816 22.632 35.688 21.944 33.4H28.056C27.368 35.688 26.328 37.816 25 39.736ZM28.744 30.2H21.256C21.112 29.144 21 28.088 21 27C21 25.912 21.112 24.84 21.256 23.8H28.744C28.888 24.84 29 25.912 29 27C29 28.088 28.888 29.144 28.744 30.2ZM29.144 39.096C30.104 37.32 30.84 35.4 31.352 33.4H36.072C34.536 36.04 32.088 38.088 29.144 39.096V39.096ZM31.976 30.2C32.104 29.144 32.2 28.088 32.2 27C32.2 25.912 32.104 24.856 31.976 23.8H37.384C37.64 24.824 37.8 25.896 37.8 27C37.8 28.104 37.64 29.176 37.384 30.2H31.976Z" fill="#4399FF"/>
</svg>
