<svg width="181" height="54" viewBox="0 0 181 54" fill="none" xmlns="http://www.w3.org/2000/svg">
<path d="M173.667 53.6666H6.99992C3.33325 53.6666 0.333252 50.6666 0.333252 47V6.99996C0.333252 3.3333 3.33325 0.333296 6.99992 0.333296H173.667C177.333 0.333296 180.333 3.3333 180.333 6.99996V47C180.333 50.6666 177.333 53.6666 173.667 53.6666Z" fill="white"/>
<path d="M63.5578 13.9912C63.5578 15.1083 63.227 15.9979 62.5644 16.6615C61.8119 17.4505 60.8311 17.8453 59.6254 17.8453C58.4707 17.8453 57.489 17.4453 56.6816 16.6443C55.8728 15.8437 55.4692 14.8511 55.4692 13.6667C55.4692 12.4817 55.8728 11.4896 56.6816 10.6885C57.489 9.888 58.4707 9.48747 59.6254 9.48747C60.1983 9.48747 60.7468 9.59947 61.2676 9.82294C61.7884 10.0469 62.2062 10.3443 62.5187 10.7167L61.8155 11.4203C61.2859 10.7875 60.5567 10.4713 59.6254 10.4713C58.7832 10.4713 58.0551 10.7672 57.4406 11.3593C56.8259 11.9521 56.5187 12.7208 56.5187 13.6667C56.5187 14.6125 56.8259 15.3812 57.4406 15.974C58.0551 16.5661 58.7832 16.862 59.6254 16.862C60.5187 16.862 61.2635 16.5645 61.8598 15.9688C62.2468 15.5807 62.4707 15.0412 62.5306 14.3484H59.6254V13.3875H63.502C63.5395 13.5964 63.5578 13.7969 63.5578 13.9912" fill="black"/>
<path d="M69.7037 10.6494H66.0605V13.186H69.346V14.1473H66.0605V16.6838H69.7037V17.6666H65.0334V9.66663H69.7037V10.6494Z" fill="black"/>
<path d="M74.0385 17.6666H73.0098V10.6494H70.7754V9.66663H76.2729V10.6494H74.0385V17.6666Z" fill="black"/>
<path d="M80.2505 17.6666V9.66663H81.2781V17.6666H80.2505Z" fill="black"/>
<path d="M85.8379 17.6666H84.8092V10.6494H82.575V9.66663H88.0723V10.6494H85.8379V17.6666Z" fill="black"/>
<path d="M93.3725 15.9631C93.9647 16.5625 94.6892 16.862 95.546 16.862C96.4028 16.862 97.1277 16.5625 97.7189 15.9631C98.3116 15.3636 98.6085 14.5973 98.6085 13.6667C98.6085 12.736 98.3116 11.9697 97.7189 11.3703C97.1277 10.7708 96.4028 10.4713 95.546 10.4713C94.6892 10.4713 93.9647 10.7708 93.3725 11.3703C92.7813 11.9697 92.4845 12.736 92.4845 13.6667C92.4845 14.5973 92.7813 15.3636 93.3725 15.9631ZM98.4793 16.6328C97.6928 17.4416 96.7147 17.8453 95.546 17.8453C94.3761 17.8453 93.3985 17.4416 92.6137 16.6328C91.8267 15.8249 91.4351 14.836 91.4351 13.6667C91.4351 12.4973 91.8267 11.5083 92.6137 10.7005C93.3985 9.8916 94.3761 9.48747 95.546 9.48747C96.7085 9.48747 97.684 9.89374 98.4741 10.7057C99.2632 11.5177 99.658 12.5047 99.658 13.6667C99.658 14.836 99.2641 15.8249 98.4793 16.6328Z" fill="black"/>
<path d="M101.101 17.6666V9.66663H102.352L106.24 15.8901H106.284L106.24 14.3484V9.66663H107.268V17.6666H106.195L102.128 11.1416H102.083L102.128 12.6838V17.6666H101.101Z" fill="black"/>
<path d="M142.915 40.3334H145.403V23.6651H142.915V40.3334ZM165.324 29.6694L162.472 36.8959H162.387L159.427 29.6694H156.747L161.185 39.7698L158.655 45.388H161.251L168.091 29.6694H165.324ZM151.215 38.4402C150.399 38.4402 149.263 38.0328 149.263 37.0246C149.263 35.738 150.679 35.2448 151.9 35.2448C152.995 35.2448 153.508 35.4807 154.173 35.8027C153.98 37.3464 152.651 38.4402 151.215 38.4402V38.4402ZM151.515 29.3047C149.713 29.3047 147.848 30.0984 147.076 31.8568L149.284 32.7787C149.756 31.8568 150.635 31.5563 151.557 31.5563C152.844 31.5563 154.152 32.3287 154.173 33.7011V33.8724C153.723 33.6151 152.759 33.2292 151.579 33.2292C149.199 33.2292 146.775 34.537 146.775 36.9818C146.775 39.212 148.727 40.649 150.913 40.649C152.587 40.649 153.508 39.8984 154.088 39.0194H154.173V40.3058H156.575V33.9151C156.575 30.9563 154.367 29.3047 151.515 29.3047V29.3047ZM136.139 31.6984H132.6V25.985H136.139C137.999 25.985 139.055 27.525 139.055 28.8416C139.055 30.1334 137.999 31.6984 136.139 31.6984ZM136.075 23.6651H130.113V40.3334H132.6V34.0183H136.075C138.832 34.0183 141.543 32.0219 141.543 28.8416C141.543 25.6615 138.832 23.6651 136.075 23.6651ZM103.567 38.4432C101.848 38.4432 100.409 37.0042 100.409 35.0276C100.409 33.0303 101.848 31.5694 103.567 31.5694C105.264 31.5694 106.595 33.0303 106.595 35.0276C106.595 37.0042 105.264 38.4432 103.567 38.4432V38.4432ZM106.423 30.6027H106.337C105.779 29.937 104.705 29.3355 103.352 29.3355C100.516 29.3355 97.9171 31.8271 97.9171 35.0276C97.9171 38.2068 100.516 40.6771 103.352 40.6771C104.705 40.6771 105.779 40.0755 106.337 39.3886H106.423V40.2047C106.423 42.3746 105.264 43.5344 103.395 43.5344C101.87 43.5344 100.924 42.4386 100.537 41.5151L98.3682 42.4172C98.9911 43.9208 100.645 45.7683 103.395 45.7683C106.316 45.7683 108.786 44.0495 108.786 39.861V29.6792H106.423V30.6027ZM110.505 40.3334H112.996V23.6646H110.505V40.3334ZM116.67 34.8344C116.605 32.6432 118.367 31.5266 119.634 31.5266C120.623 31.5266 121.46 32.0203 121.739 32.7298L116.67 34.8344ZM124.403 32.9443C123.931 31.6766 122.491 29.3355 119.548 29.3355C116.626 29.3355 114.199 31.6339 114.199 35.0063C114.199 38.1855 116.605 40.6771 119.827 40.6771C122.427 40.6771 123.931 39.0875 124.553 38.164L122.62 36.875C121.976 37.8203 121.095 38.4432 119.827 38.4432C118.56 38.4432 117.658 37.8631 117.078 36.725L124.66 33.5886L124.403 32.9443ZM63.9917 31.0755V33.4812H69.7483C69.5765 34.8344 69.1254 35.8224 68.4379 36.5099C67.6005 37.3479 66.2901 38.2714 63.9917 38.2714C60.4473 38.2714 57.6765 35.4146 57.6765 31.8703C57.6765 28.326 60.4473 25.4688 63.9917 25.4688C65.9035 25.4688 67.2994 26.2208 68.3306 27.1875L70.0275 25.4907C68.5885 24.1156 66.6765 23.0631 63.9917 23.0631C59.1369 23.0631 55.0557 27.0156 55.0557 31.8703C55.0557 36.725 59.1369 40.6771 63.9917 40.6771C66.6125 40.6771 68.5885 39.8183 70.1349 38.2068C71.7245 36.6172 72.2187 34.3834 72.2187 32.5792C72.2187 32.0203 72.1759 31.5052 72.0895 31.0755H63.9917ZM78.7635 38.4432C77.0447 38.4432 75.5625 37.0255 75.5625 35.0063C75.5625 32.9656 77.0447 31.5694 78.7635 31.5694C80.4817 31.5694 81.9639 32.9656 81.9639 35.0063C81.9639 37.0255 80.4817 38.4432 78.7635 38.4432V38.4432ZM78.7635 29.3355C75.627 29.3355 73.0707 31.7198 73.0707 35.0063C73.0707 38.2714 75.627 40.6771 78.7635 40.6771C81.8994 40.6771 84.4557 38.2714 84.4557 35.0063C84.4557 31.7198 81.8994 29.3355 78.7635 29.3355ZM91.1811 38.4432C89.463 38.4432 87.9806 37.0255 87.9806 35.0063C87.9806 32.9656 89.463 31.5694 91.1811 31.5694C92.8994 31.5694 94.3817 32.9656 94.3817 35.0063C94.3817 37.0255 92.8994 38.4432 91.1811 38.4432ZM91.1811 29.3355C88.0447 29.3355 85.489 31.7198 85.489 35.0063C85.489 38.2714 88.0447 40.6771 91.1811 40.6771C94.3171 40.6771 96.8734 38.2714 96.8734 35.0063C96.8734 31.7198 94.3171 29.3355 91.1811 29.3355Z" fill="black"/>
<path d="M14.3465 43.5193L14.2474 43.4245C13.8594 43.014 13.6304 42.3765 13.6304 41.551V41.7453V12.2573C13.6304 12.2546 13.6304 12.2526 13.6304 12.2505C13.6304 12.253 13.6304 12.2552 13.6304 12.2578V12.4526C13.6304 11.5588 13.8974 10.8854 14.3449 10.4817L30.8646 27.001L14.3465 43.5193ZM13.6304 12.2489C13.6304 12.1754 13.6324 12.1041 13.6361 12.0338C13.6324 12.1036 13.6304 12.1754 13.6304 12.2489ZM13.6361 12.0306C13.6361 12.0297 13.6361 12.0286 13.6365 12.0276C13.6361 12.0286 13.6361 12.0297 13.6361 12.0306ZM13.6365 12.0213C13.6365 12.0208 13.6365 12.0202 13.6365 12.0197C13.6365 12.0202 13.6365 12.0208 13.6365 12.0213Z" fill="url(#paint0_linear)"/>
<path d="M36.3702 32.7047L36.4958 32.6334L43.0197 28.9266C43.6417 28.573 44.0562 28.1443 44.263 27.6907C44.0568 28.1443 43.6421 28.5735 43.0197 28.9271L36.4958 32.6339L36.3702 32.7047V32.7047ZM36.3718 32.5094L30.8645 27.0011L36.3713 21.4938L43.0197 25.2708C43.864 25.7506 44.338 26.3688 44.4172 27.0006C44.4172 27.0011 44.4172 27.0022 44.4172 27.0031C44.338 27.6334 43.864 28.2522 43.0197 28.7318L36.3718 32.5094" fill="url(#paint1_linear)"/>
<path d="M15.5239 44.1484C15.0624 44.1484 14.6597 43.9984 14.3457 43.7151L14.3463 43.7146C14.6603 43.9979 15.0635 44.1484 15.5249 44.1484C15.5649 44.1484 15.6056 44.1474 15.6468 44.1454C15.6051 44.1474 15.5639 44.1484 15.5239 44.1484V44.1484ZM15.5244 43.9531C15.0629 43.9536 14.6603 43.8031 14.3463 43.5198V43.5194L30.8644 27.0011L36.3718 32.5094L17.0181 43.5058C16.4827 43.8094 15.9753 43.9531 15.5244 43.9531V43.9531ZM14.3416 43.7115C14.3124 43.685 14.2837 43.6568 14.2556 43.6276L14.3416 43.7115Z" fill="url(#paint2_linear)"/>
<path d="M30.8645 27.0011L14.3447 10.4818C14.6587 10.199 15.0609 10.049 15.5218 10.049C15.9739 10.049 16.4817 10.1932 17.0182 10.4974L36.3713 21.4938L30.8645 27.0011V27.0011ZM36.4958 21.3694L17.0182 10.3027C16.4817 9.99843 15.9739 9.85417 15.5218 9.85417C15.5197 9.85417 15.5182 9.85417 15.5161 9.85417C15.5187 9.85417 15.5207 9.85417 15.5239 9.85417C15.975 9.85417 16.4822 9.9979 17.0182 10.3022L36.4958 21.3694V21.3694Z" fill="url(#paint3_linear)"/>
<path d="M15.6469 44.1454C16.0661 44.1214 16.5302 43.9771 17.0182 43.7006L36.3702 32.7047L17.0182 43.7006C16.5306 43.9777 16.0661 44.1214 15.6469 44.1454V44.1454ZM14.3458 43.7151L14.3417 43.7115C14.3432 43.7126 14.3448 43.7141 14.3458 43.7151ZM14.2557 43.6277L14.2473 43.6194V43.6189C14.2505 43.6219 14.253 43.625 14.2557 43.6277Z" fill="black"/>
<path d="M36.3704 32.7047L36.496 32.6334L36.3704 32.7047Z" fill="url(#paint4_linear)"/>
<path d="M15.525 44.1484C15.0636 44.1484 14.6604 43.9979 14.3464 43.7146L14.3458 43.7151C14.3448 43.714 14.3432 43.7126 14.3417 43.7115L14.2557 43.6276C14.253 43.625 14.2505 43.6219 14.2473 43.6188L14.3464 43.5198C14.6604 43.8031 15.063 43.9536 15.5245 43.9531C15.9754 43.9531 16.4828 43.8094 17.0182 43.5058L36.3718 32.5094L36.4958 32.6334L36.3702 32.7047L17.0182 43.7006C16.5302 43.9771 16.0661 44.1214 15.6469 44.1454C15.6057 44.1474 15.565 44.1484 15.525 44.1484" fill="url(#paint5_linear)"/>
<path d="M14.2474 43.6194C13.8594 43.2089 13.6304 42.5714 13.6304 41.7459V41.7454C13.6304 42.5714 13.8594 43.2083 14.2474 43.6189V43.6194" fill="black"/>
<path d="M14.2474 43.6188C13.8594 43.2082 13.6304 42.5713 13.6304 41.7453V41.551C13.6304 42.3765 13.8594 43.014 14.2474 43.4245L14.3465 43.5193L14.2474 43.6188" fill="url(#paint6_linear)"/>
<path d="M14.2473 43.6188L14.3464 43.5193V43.5197L14.2473 43.6188" fill="url(#paint7_linear)"/>
<path d="M44.2632 27.6907C44.3657 27.4656 44.4173 27.2344 44.4173 27.0031C44.4173 27.0027 44.4173 27.0021 44.4173 27.0021C44.4173 27.2339 44.3657 27.4651 44.2632 27.6907Z" fill="black"/>
<path d="M36.4958 32.6333L36.3718 32.5093L43.0197 28.7317C43.864 28.2521 44.338 27.6333 44.4172 27.003C44.4172 27.2344 44.3656 27.4656 44.263 27.6906C44.0562 28.1442 43.6417 28.5729 43.0197 28.9265L36.4958 32.6333Z" fill="url(#paint8_linear)"/>
<path d="M44.4172 27.0011V27.0006C44.4167 26.3031 43.9506 25.6058 43.0198 25.0766L36.4959 21.3698H36.4954L36.4959 21.3694L43.0198 25.076C43.9516 25.6052 44.4183 26.3036 44.4172 27.0011Z" fill="#404040"/>
<path d="M44.4172 27.0005C44.338 26.3688 43.864 25.7505 43.0197 25.2708L36.3713 21.4937L36.4953 21.3697H36.4959L43.0197 25.0765C43.9505 25.6057 44.4167 26.303 44.4172 27.0005Z" fill="url(#paint9_linear)"/>
<path d="M13.6304 12.2505C13.6304 12.25 13.6304 12.2494 13.6304 12.2489C13.6304 12.2494 13.6304 12.25 13.6304 12.2505ZM13.6361 12.0338C13.6361 12.0328 13.6361 12.0317 13.6361 12.0306C13.6361 12.0317 13.6361 12.0328 13.6361 12.0338ZM13.6365 12.0276C13.6365 12.0254 13.6365 12.0234 13.6365 12.0213C13.6365 12.0234 13.6365 12.0254 13.6365 12.0276ZM13.6365 12.0197C13.7137 10.65 14.4585 9.85876 15.5121 9.85409C15.0553 9.85676 14.6574 10.0068 14.346 10.2874V10.2869L14.3422 10.2906C14.3094 10.3202 14.2782 10.3516 14.2474 10.3838C13.8974 10.7541 13.6766 11.3088 13.6365 12.0197Z" fill="#404040"/>
<path d="M13.6304 12.4526V12.2578C13.6304 12.2552 13.6304 12.253 13.6304 12.2505C13.6304 12.25 13.6304 12.2494 13.6304 12.2489C13.6304 12.1754 13.6324 12.1036 13.6361 12.0338C13.6361 12.0328 13.6361 12.0317 13.6361 12.0306C13.6361 12.0297 13.6361 12.0286 13.6365 12.0276C13.6365 12.0254 13.6365 12.0234 13.6365 12.0213C13.6365 12.0208 13.6365 12.0202 13.6365 12.0197C13.6766 11.3088 13.8974 10.7541 14.2474 10.3838L14.3449 10.4817C13.8974 10.8854 13.6304 11.5588 13.6304 12.4526V12.4526ZM14.3422 10.2906L14.346 10.2869C14.3449 10.2885 14.3433 10.2896 14.3422 10.2906Z" fill="url(#paint10_linear)"/>
<path d="M36.3713 21.4938L17.0182 10.4974C16.4817 10.1932 15.974 10.049 15.5218 10.049C15.0609 10.049 14.6588 10.199 14.3448 10.4818L14.2473 10.3839C14.2781 10.3516 14.3093 10.3203 14.3421 10.2907C14.3432 10.2896 14.3448 10.2886 14.3458 10.2875C14.6573 10.0068 15.0552 9.85684 15.512 9.85417C15.513 9.85417 15.5145 9.85417 15.5161 9.85417C15.5182 9.85417 15.5197 9.85417 15.5218 9.85417C15.974 9.85417 16.4817 9.99844 17.0182 10.3027L36.4958 21.3694L36.4953 21.3698L36.3713 21.4938Z" fill="url(#paint11_linear)"/>
<defs>
<linearGradient id="paint0_linear" x1="29.3998" y1="11.9462" x2="7.02317" y2="34.3229" gradientUnits="userSpaceOnUse">
<stop stop-color="#00A0FF"/>
<stop offset="0.00657445" stop-color="#00A1FF"/>
<stop offset="0.2601" stop-color="#00BEFF"/>
<stop offset="0.5122" stop-color="#00D2FF"/>
<stop offset="0.7604" stop-color="#00DFFF"/>
<stop offset="1" stop-color="#00E3FF"/>
</linearGradient>
<linearGradient id="paint1_linear" x1="45.4458" y1="27.0019" x2="13.1832" y2="27.0019" gradientUnits="userSpaceOnUse">
<stop stop-color="#FFE000"/>
<stop offset="0.4087" stop-color="#FFBD00"/>
<stop offset="0.7754" stop-color="#FFA500"/>
<stop offset="1" stop-color="#FF9C00"/>
</linearGradient>
<linearGradient id="paint2_linear" x1="33.4359" y1="30.0615" x2="3.09148" y2="60.4059" gradientUnits="userSpaceOnUse">
<stop stop-color="#FF3A44"/>
<stop offset="1" stop-color="#C31162"/>
</linearGradient>
<linearGradient id="paint3_linear" x1="10.063" y1="0.568301" x2="23.613" y2="14.1183" gradientUnits="userSpaceOnUse">
<stop stop-color="#32A071"/>
<stop offset="0.0685" stop-color="#2DA771"/>
<stop offset="0.4762" stop-color="#15CF74"/>
<stop offset="0.8009" stop-color="#06E775"/>
<stop offset="1" stop-color="#00F076"/>
</linearGradient>
<linearGradient id="paint4_linear" x1="45.4458" y1="27.0019" x2="13.1836" y2="27.0019" gradientUnits="userSpaceOnUse">
<stop stop-color="#CCB300"/>
<stop offset="0.4087" stop-color="#CC9700"/>
<stop offset="0.7754" stop-color="#CC8400"/>
<stop offset="1" stop-color="#CC7D00"/>
</linearGradient>
<linearGradient id="paint5_linear" x1="33.436" y1="30.0615" x2="3.09158" y2="60.4059" gradientUnits="userSpaceOnUse">
<stop stop-color="#CC2E36"/>
<stop offset="1" stop-color="#9C0E4E"/>
</linearGradient>
<linearGradient id="paint6_linear" x1="29.3998" y1="11.9462" x2="7.02316" y2="34.3229" gradientUnits="userSpaceOnUse">
<stop stop-color="#008DE0"/>
<stop offset="0.00657445" stop-color="#008DE0"/>
<stop offset="0.2601" stop-color="#00A7E0"/>
<stop offset="0.5122" stop-color="#00B8E0"/>
<stop offset="0.7604" stop-color="#00C4E0"/>
<stop offset="1" stop-color="#00C7E0"/>
</linearGradient>
<linearGradient id="paint7_linear" x1="33.4363" y1="30.0614" x2="3.09179" y2="60.4063" gradientUnits="userSpaceOnUse">
<stop stop-color="#E0333C"/>
<stop offset="1" stop-color="#AB0F56"/>
</linearGradient>
<linearGradient id="paint8_linear" x1="45.4458" y1="27.0018" x2="13.1832" y2="27.0018" gradientUnits="userSpaceOnUse">
<stop stop-color="#E0C500"/>
<stop offset="0.4087" stop-color="#E0A600"/>
<stop offset="0.7754" stop-color="#E09100"/>
<stop offset="1" stop-color="#E08900"/>
</linearGradient>
<linearGradient id="paint9_linear" x1="45.4459" y1="27.0018" x2="13.1832" y2="27.0018" gradientUnits="userSpaceOnUse">
<stop stop-color="#FFE840"/>
<stop offset="0.4087" stop-color="#FFCE40"/>
<stop offset="0.7754" stop-color="#FFBC40"/>
<stop offset="1" stop-color="#FFB540"/>
</linearGradient>
<linearGradient id="paint10_linear" x1="29.3998" y1="11.9462" x2="7.02317" y2="34.3229" gradientUnits="userSpaceOnUse">
<stop stop-color="#40B8FF"/>
<stop offset="0.00657445" stop-color="#40B9FF"/>
<stop offset="0.2601" stop-color="#40CEFF"/>
<stop offset="0.5122" stop-color="#40DDFF"/>
<stop offset="0.7604" stop-color="#40E7FF"/>
<stop offset="1" stop-color="#40EAFF"/>
</linearGradient>
<linearGradient id="paint11_linear" x1="10.063" y1="0.568308" x2="23.613" y2="14.1183" gradientUnits="userSpaceOnUse">
<stop stop-color="#65B895"/>
<stop offset="0.0685" stop-color="#62BD95"/>
<stop offset="0.4762" stop-color="#50DB97"/>
<stop offset="0.8009" stop-color="#44ED98"/>
<stop offset="1" stop-color="#40F498"/>
</linearGradient>
</defs>
</svg>
