<svg width="621" height="160" viewBox="0 0 621 160" fill="none" xmlns="http://www.w3.org/2000/svg">
<g filter="url(#filter0_d)">
<rect x="456" y="39" width="92" height="28" fill="white"/>
<path d="M4.69922 149V19.3106H33.7424V70.0905H85.9836V19.3106H115.027V149H85.9836V97.6724H33.7424V149H4.69922Z" fill="white"/>
<path d="M142.409 149V19.3106H224.607V47.0751H171.452V70.2731H213.647V98.0377H171.452V121.236H224.607V149H142.409Z" fill="white"/>
<path d="M246.761 149V19.3106H275.805V121.236H329.507V149H246.761Z" fill="white"/>
<path d="M347.546 149V19.3106H376.589V121.236H430.292V149H347.546Z" fill="white"/>
<path d="M475.324 111.555C482.752 119.226 491.702 123.062 502.175 123.062C512.647 123.062 521.537 119.226 528.843 111.555C536.15 103.883 539.803 94.7498 539.803 84.1554C539.803 73.5611 536.15 64.428 528.843 56.7562C521.537 49.0844 512.647 45.2485 502.175 45.2485C491.702 45.2485 482.752 49.0844 475.324 56.7562C468.017 64.428 464.364 73.5611 464.364 84.1554C464.364 94.7498 468.017 103.883 475.324 111.555ZM549.484 131.465C536.454 144.616 520.685 151.192 502.175 151.192C483.665 151.192 467.835 144.677 454.683 131.647C441.653 118.496 435.138 102.665 435.138 84.1554C435.138 65.6457 441.653 49.8759 454.683 36.8461C467.835 23.6945 483.665 17.1187 502.175 17.1187C520.685 17.1187 536.454 23.6945 549.484 36.8461C562.636 49.9977 569.212 65.7675 569.212 84.1554C569.212 102.543 562.636 118.313 549.484 131.465Z" fill="white"/>
<path d="M610.378 144.799C606.603 148.574 602.036 150.462 596.678 150.462C591.32 150.462 586.692 148.574 582.796 144.799C579.021 140.902 577.133 136.275 577.133 130.917C577.133 125.559 579.021 120.992 582.796 117.217C586.692 113.32 591.32 111.372 596.678 111.372C602.036 111.372 606.603 113.32 610.378 117.217C614.274 120.992 616.223 125.559 616.223 130.917C616.223 136.275 614.274 140.902 610.378 144.799Z" fill="white"/>
<path d="M536.107 25.6562L547.318 6.27882C548.292 4.39013 547.56 2.07442 545.731 1.09947C543.963 0.185731 541.773 0.73444 540.677 2.44023L529.224 22.1827C511.803 14.81 492.194 14.81 474.774 22.1827L463.323 2.44023C462.166 0.673222 459.79 0.124527 458.023 1.22192C456.318 2.31855 455.77 4.51181 456.684 6.27882L467.891 25.6562C449.009 36.4412 436.705 55.8791 435 77.5714H569C567.293 55.8791 554.993 36.4412 536.107 25.6562ZM471.546 60.8143C467.343 60.8143 463.932 57.402 463.932 53.1976C463.932 48.9932 467.343 45.5808 471.546 45.5808C475.748 45.5808 479.159 48.9932 479.159 53.1976C479.159 57.402 475.748 60.8143 471.546 60.8143ZM532.457 60.8143C528.249 60.8143 524.842 57.402 524.842 53.1976C524.842 48.9932 528.249 45.5808 532.457 45.5808C536.658 45.5808 540.065 48.9932 540.065 53.1976C540.065 57.402 536.658 60.8143 532.457 60.8143Z" fill="#39EC96"/>
</g>
<defs>
<filter id="filter0_d" x="0.699219" y="0.65625" width="619.523" height="158.536" filterUnits="userSpaceOnUse" color-interpolation-filters="sRGB">
<feFlood flood-opacity="0" result="BackgroundImageFix"/>
<feColorMatrix in="SourceAlpha" type="matrix" values="0 0 0 0 0 0 0 0 0 0 0 0 0 0 0 0 0 0 127 0" result="hardAlpha"/>
<feOffset dy="4"/>
<feGaussianBlur stdDeviation="2"/>
<feComposite in2="hardAlpha" operator="out"/>
<feColorMatrix type="matrix" values="0 0 0 0 0 0 0 0 0 0 0 0 0 0 0 0 0 0 0.25 0"/>
<feBlend mode="normal" in2="BackgroundImageFix" result="effect1_dropShadow"/>
<feBlend mode="normal" in="SourceGraphic" in2="effect1_dropShadow" result="shape"/>
</filter>
</defs>
</svg>
