<svg width="180" height="54" viewBox="0 0 180 54" fill="none" xmlns="http://www.w3.org/2000/svg">
<path d="M173.333 53.3334H6.66667C3 53.3334 0 50.3334 0 46.6667V6.66671C0 3.00004 3 4.57764e-05 6.66667 4.57764e-05H173.333C177 4.57764e-05 180 3.00004 180 6.66671V46.6667C180 50.3334 177 53.3334 173.333 53.3334Z" fill="white"/>
<path d="M54.6153 36.4811V42.874H52.5872V27.0902H57.966C59.3328 27.0902 60.4938 27.5458 61.4491 28.457C62.419 29.3681 62.904 30.4777 62.904 31.7857C62.904 33.123 62.419 34.2399 61.4491 35.1364C60.5085 36.0329 59.3475 36.4811 57.966 36.4811H54.6153ZM54.6153 29.0301V34.5412H58.0101C58.8184 34.5412 59.4871 34.2693 60.0162 33.7256C60.5599 33.1818 60.8318 32.5352 60.8318 31.7857C60.8318 31.0509 60.5599 30.4116 60.0162 29.8678C59.4871 29.3093 58.8184 29.0301 58.0101 29.0301H54.6153ZM66.7056 42.874H64.6775V32.0722H66.6175V33.8358H66.7056C66.9114 33.2626 67.3302 32.7777 67.9622 32.3809C68.6088 31.9694 69.2407 31.7636 69.858 31.7636C70.4458 31.7636 70.9455 31.8518 71.357 32.0282L70.7398 33.9901C70.4899 33.8872 70.0931 33.8358 69.5494 33.8358C68.7852 33.8358 68.1165 34.1444 67.5433 34.7617C66.9849 35.3789 66.7056 36.099 66.7056 36.922V42.874ZM71.4013 37.4731C71.4013 35.8125 71.923 34.4383 72.9664 33.3508C74.0246 32.2633 75.3546 31.7195 76.9565 31.7195C78.5584 31.7195 79.881 32.2633 80.9245 33.3508C81.9826 34.4383 82.5117 35.8125 82.5117 37.4731C82.5117 39.1485 81.9826 40.5226 80.9245 41.5954C79.881 42.683 78.5584 43.2267 76.9565 43.2267C75.3546 43.2267 74.0246 42.683 72.9664 41.5954C71.923 40.5079 71.4013 39.1338 71.4013 37.4731ZM73.4294 37.4731C73.4294 38.6341 73.7674 39.5747 74.4434 40.2948C75.1194 41.0149 75.9571 41.375 76.9565 41.375C77.9558 41.375 78.7935 41.0149 79.4695 40.2948C80.1456 39.5747 80.4836 38.6341 80.4836 37.4731C80.4836 36.3268 80.1456 35.3936 79.4695 34.6735C78.7788 33.9387 77.9411 33.5713 76.9565 33.5713C75.9718 33.5713 75.1341 33.9387 74.4434 34.6735C73.7674 35.3936 73.4294 36.3268 73.4294 37.4731ZM86.8696 28.3467C86.8696 28.7435 86.73 29.0815 86.4507 29.3608C86.1715 29.64 85.8335 29.7796 85.4367 29.7796C85.0399 29.7796 84.7019 29.64 84.4227 29.3608C84.1434 29.0815 84.0038 28.7435 84.0038 28.3467C84.0038 27.9499 84.1434 27.6119 84.4227 27.3327C84.7019 27.0535 85.0399 26.9138 85.4367 26.9138C85.8335 26.9138 86.1715 27.0535 86.4507 27.3327C86.73 27.6119 86.8696 27.9499 86.8696 28.3467ZM83.2102 47.8561C82.7693 47.8561 82.3725 47.7826 82.0198 47.6356L82.5489 45.8721C82.784 45.9602 82.9824 46.0043 83.1441 46.0043C83.9671 46.0043 84.3933 45.4973 84.4227 44.4833V32.0722H86.4507V44.1746C86.4507 46.6289 85.3706 47.8561 83.2102 47.8561ZM93.8322 43.2267C92.245 43.2267 90.937 42.683 89.9083 41.5954C88.8795 40.5079 88.3652 39.1338 88.3652 37.4731C88.3652 35.8271 88.8648 34.4604 89.8642 33.3729C90.8635 32.2706 92.1421 31.7195 93.6999 31.7195C95.3018 31.7195 96.573 32.2413 97.5136 33.2847C98.4689 34.3134 98.9465 35.761 98.9465 37.6274L98.9245 37.8479H90.4373C90.4667 38.906 90.8194 39.7584 91.4955 40.405C92.1715 41.0517 92.9798 41.375 93.9204 41.375C95.2136 41.375 96.2277 40.7284 96.9625 39.4351L98.7701 40.3169C98.2852 41.228 97.6091 41.9408 96.7421 42.4552C95.8897 42.9695 94.9197 43.2267 93.8322 43.2267ZM90.5917 36.1725H96.7861C96.7274 35.423 96.4187 34.8058 95.8603 34.3208C95.3165 33.8211 94.5817 33.5713 93.6558 33.5713C92.8916 33.5713 92.2303 33.8064 91.6718 34.2767C91.1281 34.747 90.768 35.3789 90.5917 36.1725ZM105.847 43.2267C104.245 43.2267 102.915 42.683 101.857 41.5954C100.813 40.4785 100.292 39.1044 100.292 37.4731C100.292 35.8125 100.813 34.4383 101.857 33.3508C102.915 32.2633 104.245 31.7195 105.847 31.7195C106.949 31.7195 107.912 31.9988 108.735 32.5572C109.558 33.101 110.175 33.8578 110.586 34.8278L108.735 35.5994C108.161 34.2473 107.155 33.5713 105.714 33.5713C104.789 33.5713 103.988 33.946 103.312 34.6955C102.65 35.445 102.32 36.3709 102.32 37.4731C102.32 38.5754 102.65 39.5012 103.312 40.2507C103.988 41.0002 104.789 41.375 105.714 41.375C107.199 41.375 108.242 40.699 108.845 39.3469L110.652 40.1185C110.256 41.0884 109.631 41.8526 108.779 42.4111C107.941 42.9549 106.964 43.2267 105.847 43.2267ZM116.595 43.0504C115.713 43.0504 114.979 42.7785 114.391 42.2347C113.818 41.691 113.524 40.9341 113.509 39.9642V33.924H111.613V32.0722H113.509V28.7656H115.537V32.0722H118.182V33.924H115.537V39.3028C115.537 40.0229 115.677 40.5153 115.956 40.7798C116.235 41.0296 116.551 41.1546 116.904 41.1546C117.065 41.1546 117.22 41.1399 117.367 41.1105C117.528 41.0664 117.675 41.0149 117.808 40.9562L118.447 42.7638C117.918 42.9549 117.301 43.0504 116.595 43.0504ZM134.17 42.874H125.308V27.0902H127.336V40.9341H134.17V42.874ZM138.558 28.3467C138.558 28.7435 138.418 29.0815 138.139 29.3608C137.86 29.64 137.522 29.7796 137.125 29.7796C136.728 29.7796 136.39 29.64 136.111 29.3608C135.832 29.0815 135.692 28.7435 135.692 28.3467C135.692 27.9499 135.832 27.6119 136.111 27.3327C136.39 27.0535 136.728 26.9138 137.125 26.9138C137.522 26.9138 137.86 27.0535 138.139 27.3327C138.418 27.6119 138.558 27.9499 138.558 28.3467ZM138.139 32.0722V42.874H136.111V32.0722H138.139ZM140.778 32.0722H142.718V33.5713H142.806C143.115 33.0422 143.585 32.6013 144.217 32.2486C144.864 31.8959 145.532 31.7195 146.223 31.7195C147.546 31.7195 148.56 32.1016 149.265 32.8658C149.985 33.6154 150.346 34.6882 150.346 36.0843V42.874H148.317V36.2166C148.273 34.453 147.384 33.5713 145.65 33.5713C144.842 33.5713 144.166 33.9019 143.622 34.5633C143.078 35.2099 142.806 35.9888 142.806 36.9V42.874H140.778V32.0722ZM162.227 42.874H159.78L156.408 37.7818L154.754 39.413V42.874H152.726V27.0902H154.754V36.8118L159.428 32.0722H162.029V32.1604L157.818 36.3489L162.227 42.7858V42.874Z" fill="black"/>
<path d="M61.0092 17.1051C61.0092 18.2889 60.658 19.2321 59.9556 19.9345C59.1663 20.7711 58.1285 21.1894 56.842 21.1894C55.6108 21.1894 54.569 20.7632 53.7166 19.9108C52.8642 19.0585 52.438 18.0088 52.438 16.7618C52.438 15.5147 52.8642 14.465 53.7166 13.6127C54.569 12.7603 55.6108 12.3341 56.842 12.3341C57.4655 12.3341 58.0535 12.4446 58.606 12.6656C59.1585 12.8866 59.6123 13.1983 59.9674 13.6008L59.1861 14.3822C58.9256 14.0665 58.5863 13.8218 58.168 13.6482C57.7575 13.4667 57.3156 13.3759 56.842 13.3759C55.9186 13.3759 55.1373 13.6955 54.498 14.3348C53.8666 14.982 53.5509 15.791 53.5509 16.7618C53.5509 17.7325 53.8666 18.5415 54.498 19.1887C55.1373 19.828 55.9186 20.1476 56.842 20.1476C57.6865 20.1476 58.3889 19.9108 58.9493 19.4373C59.5097 18.9637 59.8333 18.3126 59.9201 17.4839H56.842V16.4658H60.95C60.9895 16.6868 61.0092 16.8999 61.0092 17.1051ZM63.4217 21H62.3326V12.5235H63.4217V21ZM68.019 13.5653V21H66.9299V13.5653H64.5621V12.5235H70.3868V13.5653H68.019ZM72.6129 21H71.5237V12.5235H72.6129V16.158H76.8512V12.5235H77.9403V21H76.8512V17.1761H72.6129V21ZM82.5875 21.1894C81.6483 21.1894 80.8907 20.8816 80.3145 20.266C79.7384 19.6583 79.4503 18.8533 79.4503 17.8509V12.5235H80.5395V17.8983C80.5395 18.5928 80.721 19.1413 81.084 19.5438C81.4471 19.9464 81.9483 20.1476 82.5875 20.1476C83.2268 20.1476 83.728 19.9464 84.0911 19.5438C84.4541 19.1413 84.6356 18.5928 84.6356 17.8983V12.5235H85.7248V17.8509C85.7248 18.8769 85.4407 19.6899 84.8724 20.2897C84.3042 20.8895 83.5425 21.1894 82.5875 21.1894ZM87.2354 21V12.5235H90.3017C90.9725 12.5235 91.5487 12.7445 92.0301 13.1865C92.5115 13.6206 92.7523 14.1691 92.7523 14.832C92.7523 15.6686 92.3695 16.2566 91.6039 16.596V16.6434C92.038 16.7854 92.3853 17.034 92.6457 17.3892C92.9062 17.7365 93.0364 18.135 93.0364 18.5849C93.0364 19.2794 92.7838 19.8556 92.2787 20.3134C91.7894 20.7711 91.1856 21 90.4674 21H87.2354ZM88.3246 13.5653V16.158H90.3017C90.6884 16.158 91.012 16.0278 91.2724 15.7673C91.5329 15.499 91.6631 15.1951 91.6631 14.8557C91.6631 14.5242 91.5368 14.2243 91.2843 13.956C91.0317 13.6955 90.72 13.5653 90.349 13.5653H88.3246ZM88.3246 17.1761V19.9582H90.5147C90.9094 19.9582 91.2448 19.8201 91.521 19.5438C91.7894 19.2676 91.9236 18.9401 91.9236 18.5612C91.9236 18.1903 91.7854 17.8667 91.5092 17.5905C91.233 17.3142 90.8857 17.1761 90.4674 17.1761H88.3246Z" fill="black"/>
<path d="M19.7032 35.6386C19.7032 35.7676 19.5548 35.8708 19.3677 35.8708C19.1548 35.8902 19.0065 35.787 19.0065 35.6386C19.0065 35.5095 19.1548 35.4063 19.3419 35.4063C19.5355 35.387 19.7032 35.4902 19.7032 35.6386ZM17.6968 35.3482C17.6516 35.4773 17.7806 35.6257 17.9742 35.6644C18.1419 35.7289 18.3355 35.6644 18.3742 35.5353C18.4129 35.4063 18.2903 35.2579 18.0968 35.1999C17.929 35.1547 17.7419 35.2192 17.6968 35.3482ZM20.5484 35.2386C20.3613 35.2837 20.2323 35.4063 20.2516 35.5547C20.271 35.6837 20.4387 35.7676 20.6323 35.7224C20.8194 35.6773 20.9484 35.5547 20.929 35.4257C20.9097 35.3031 20.7355 35.2192 20.5484 35.2386ZM24.7935 10.516C15.8452 10.516 9 17.3095 9 26.2579C9 33.4128 13.5032 39.5353 19.9355 41.6902C20.7613 41.8386 21.0516 41.3289 21.0516 40.9095C21.0516 40.5095 21.0323 38.3031 21.0323 36.9482C21.0323 36.9482 16.5161 37.916 15.5677 35.0257C15.5677 35.0257 14.8323 33.1482 13.7742 32.6644C13.7742 32.6644 12.2968 31.6515 13.8774 31.6708C13.8774 31.6708 15.4839 31.7999 16.3677 33.3353C17.7806 35.8257 20.1484 35.1095 21.071 34.6837C21.2194 33.6515 21.6387 32.9353 22.1032 32.5095C18.4968 32.1095 14.8581 31.587 14.8581 25.3805C14.8581 23.6063 15.3484 22.716 16.3806 21.5805C16.2129 21.1612 15.6645 19.4321 16.5484 17.1999C17.8968 16.7805 21 18.9418 21 18.9418C22.2903 18.5805 23.6774 18.3934 25.0516 18.3934C26.4258 18.3934 27.8129 18.5805 29.1032 18.9418C29.1032 18.9418 32.2065 16.7741 33.5548 17.1999C34.4387 19.4386 33.8903 21.1612 33.7226 21.5805C34.7548 22.7224 35.3871 23.6128 35.3871 25.3805C35.3871 31.6063 31.5871 32.1031 27.9806 32.5095C28.5742 33.0192 29.0774 33.987 29.0774 35.5031C29.0774 37.6773 29.0581 40.3676 29.0581 40.8966C29.0581 41.316 29.3548 41.8257 30.1742 41.6773C36.6258 39.5353 41 33.4128 41 26.2579C41 17.3095 33.7419 10.516 24.7935 10.516ZM15.271 32.7676C15.1871 32.8321 15.2065 32.9805 15.3161 33.1031C15.4194 33.2063 15.5677 33.2515 15.6516 33.1676C15.7355 33.1031 15.7161 32.9547 15.6065 32.8321C15.5032 32.7289 15.3548 32.6837 15.271 32.7676ZM14.5742 32.245C14.529 32.3289 14.5935 32.4321 14.7226 32.4966C14.8258 32.5612 14.9548 32.5418 15 32.4515C15.0452 32.3676 14.9806 32.2644 14.8516 32.1999C14.7226 32.1612 14.6194 32.1805 14.5742 32.245ZM16.6645 34.5418C16.5613 34.6257 16.6 34.8192 16.7484 34.9418C16.8968 35.0902 17.0839 35.1095 17.1677 35.0063C17.2516 34.9224 17.2129 34.7289 17.0839 34.6063C16.9419 34.4579 16.7484 34.4386 16.6645 34.5418ZM15.929 33.5934C15.8258 33.6579 15.8258 33.8257 15.929 33.9741C16.0323 34.1224 16.2065 34.187 16.2903 34.1224C16.3935 34.0386 16.3935 33.8708 16.2903 33.7224C16.2 33.5741 16.0323 33.5095 15.929 33.5934Z" fill="black"/>
</svg>
