<svg width="512" height="512" viewBox="0 0 512 512" fill="none" xmlns="http://www.w3.org/2000/svg">
<path d="M190.615 310.882C182.875 310.103 175.135 308.637 167.579 306.576L166.892 306.393L167.075 305.706C169.319 298.424 172.158 291.28 175.502 284.456L175.822 283.769L176.418 284.089C181.501 286.929 186.905 289.494 192.356 291.738L192.859 291.921L192.768 292.425C191.898 298.195 191.44 304.103 191.302 310.057V310.836L190.615 310.882ZM207.286 206.736V206.553C202.798 206.644 198.355 206.873 193.958 207.377C194.462 211.957 195.332 216.399 196.294 220.796C199.408 215.667 203.072 210.949 207.286 206.736ZM191.394 316.103V315.507L190.798 315.416C184.249 314.82 177.608 313.721 171.105 312.118L169.365 311.706L170.326 313.263C176.234 322.194 183.471 330.117 191.852 336.803L193.226 337.903L192.951 336.208C191.989 329.384 191.485 322.56 191.394 316.103ZM223.315 159.151C215.301 161.899 207.744 165.609 200.782 170.189C206.003 171.151 211.27 172.341 216.354 173.898C218.415 168.769 220.751 163.96 223.315 159.151ZM256.565 153.656C252.58 153.656 248.733 153.93 244.886 154.342C250.291 158.098 255.557 162.22 260.458 166.8L264.58 170.601L260.549 174.448C257.206 177.654 254 181.089 250.886 184.753L250.703 184.936C250.703 184.936 250.107 185.623 249.146 186.768C251.573 186.493 254.046 186.31 256.519 186.31C295.173 186.31 326.545 217.636 326.545 256.336C326.545 294.944 295.219 326.361 256.519 326.361C243.1 326.361 230.551 322.56 219.972 316.057C214.751 316.652 209.484 316.881 204.126 316.881C201.653 316.881 199.225 316.79 196.752 316.698C196.935 324.713 197.668 332.865 198.996 341.475C215.438 352.604 235.177 359.107 256.519 359.107C313.309 359.107 359.245 313.126 359.245 256.427C359.291 199.683 313.355 153.656 256.565 153.656ZM243.009 177.883C245.069 175.501 247.13 173.12 249.283 170.83C244.428 166.708 239.39 162.998 234.078 159.655C230.78 165.105 227.941 170.922 225.559 176.738C230.185 178.432 234.673 180.448 239.161 182.6C241.085 179.99 242.551 178.432 243.009 177.883ZM173.258 236.551L173.67 237.146L174.265 236.688C179.028 233.253 184.02 230.047 189.15 227.254L189.699 227.07L189.47 226.475C187.913 220.704 186.768 214.659 185.944 208.568L185.852 207.881L185.165 208.064C177.608 209.438 170.052 211.499 162.816 214.064L162.129 214.338L162.403 215.025C165.426 222.445 168.998 229.681 173.258 236.551ZM172.021 246.489L171.426 246.901C165.93 251.389 160.663 256.381 155.854 261.74L155.35 262.244L155.854 262.656C161.213 267.281 166.983 271.586 172.983 275.388L173.578 275.846L173.899 275.25C176.555 270.396 179.669 265.678 182.921 261.144L183.242 260.686L182.921 260.228C179.12 256.015 175.593 251.618 172.342 246.993L172.021 246.489ZM212.369 311.202L214.201 311.111L212.827 309.966C207.332 305.523 202.614 300.256 198.721 294.257V294.074L197.622 293.524L197.439 294.486C196.752 299.615 196.34 304.974 196.248 310.469V311.156H196.935C199.317 311.34 201.836 311.34 204.217 311.34C206.874 311.477 209.576 311.385 212.369 311.202ZM208.935 197.759C210.034 192.676 211.408 187.684 213.056 182.783C206.599 180.951 200.004 179.577 193.363 178.661C192.768 185.394 192.676 192.08 193.088 198.721C198.355 198.126 203.714 197.851 208.935 197.759ZM218.827 197.393C223.315 194.554 228.124 192.172 233.208 190.34C229.59 188.737 225.972 187.18 222.17 185.806C220.888 189.607 219.789 193.546 218.827 197.393ZM171.105 280.884L170.555 280.517C165.243 277.174 160.113 273.464 155.35 269.526L153.976 268.381L154.251 270.213C155.534 280.151 158.281 289.677 162.312 298.791L162.999 300.439L163.594 298.791C165.563 292.929 168.082 287.158 170.83 281.662L171.105 280.884ZM184.249 183.424C178.158 189.516 172.708 196.34 168.357 203.805C173.67 202.248 179.028 200.965 184.432 200.004C184.066 194.508 184.02 189.012 184.249 183.424ZM187.318 255.465L187.409 253.679C187.684 247.405 188.692 241.268 190.615 235.36L191.119 233.62L189.562 234.49C185.532 236.825 181.547 239.39 177.746 242.138L177.15 242.55L177.563 243.146C180.265 246.947 183.058 250.657 186.127 254.183L187.318 255.465ZM188.05 265.999L187.776 264.305L186.768 265.862C183.929 269.892 181.272 274.014 178.845 278.319L178.524 278.914L179.12 279.235C183.425 281.662 187.959 283.86 192.539 285.876L194.187 286.563L193.409 284.914C190.707 278.914 188.921 272.502 188.05 265.999ZM167.991 241.451L168.54 240.993L168.22 240.489C165.014 235.314 162.083 229.91 159.518 224.414L158.739 222.857L158.236 224.597C155.213 233.894 153.564 243.604 153.335 253.405L153.244 255.236L154.572 253.908C158.694 249.466 163.274 245.161 167.991 241.451Z" fill="#43B02A"/>
</svg>
