<svg width="512" height="512" viewBox="0 0 512 512" fill="none" xmlns="http://www.w3.org/2000/svg">
<path d="M340.036 235.518C342.074 226.456 339.545 215.759 326.971 204.163C306.517 222.678 312.354 241.93 319.132 251.196C319.132 251.196 318.275 256.422 298.229 256.422H141.451C141.451 256.422 131.878 340.036 225.066 340.036C306.559 340.036 329.443 277.304 333.911 261.261C335.771 261.506 337.83 261.668 340.036 261.648C351.261 261.564 365.8 255.523 371.391 232.989C356.55 227.841 347.039 230.167 340.036 235.518V235.518Z" fill="#03A9F4"/>
<path d="M142.309 277.325C146.145 302.086 162.272 340.036 225.066 340.036C288.739 340.036 316.64 301.741 327.933 277.325H142.309Z" fill="#0288D1"/>
<path d="M234.54 339.712C229.722 338.04 208.018 334.016 204.162 303.455C182.161 313.191 162.678 310.641 154.108 308.723C165.396 325.602 186.341 340.036 225.065 340.036C228.311 340.036 231.457 339.916 234.54 339.707V339.712Z" fill="#81D4FA"/>
<path d="M235.518 298.229C235.518 301.001 234.417 303.66 232.457 305.62C230.497 307.58 227.838 308.681 225.066 308.681C222.294 308.681 219.636 307.58 217.676 305.62C215.715 303.66 214.614 301.001 214.614 298.229C214.614 295.457 215.715 292.799 217.676 290.839C219.636 288.879 222.294 287.777 225.066 287.777C227.838 287.777 230.497 288.879 232.457 290.839C234.417 292.799 235.518 295.457 235.518 298.229V298.229Z" fill="white"/>
<path d="M208.939 306.58C210.104 309.214 209.043 312.642 206.263 313.457C189.018 318.542 174.155 319.216 162.904 319.216C159.673 316.108 156.773 312.674 154.25 308.968C167.764 308.968 189.321 308.336 202.041 303.925C204.774 302.964 207.774 303.925 208.939 306.58V306.58ZM141.452 272.099C141.452 272.099 151.25 272.753 157.129 266.874C166.928 275.695 188.176 272.57 193.711 266.874C199.266 275.695 229.968 274.059 235.518 266.874C242.05 274.388 270.14 276.019 277.325 266.874C279.834 274.503 312.966 276.672 319.132 266.874C324.688 272.57 345.591 277.001 357.349 266.874C360.281 273.082 371.391 272.099 371.391 272.099V277.325H141.452V272.099ZM219.84 298.229C219.84 301.103 222.192 303.455 225.066 303.455C227.94 303.455 230.292 301.103 230.292 298.229C230.292 295.355 227.94 293.003 225.066 293.003C222.192 293.003 219.84 295.355 219.84 298.229Z" fill="#37474F"/>
<path d="M188.484 256.422H162.355V230.292H188.484V256.422ZM240.744 230.292H214.614V256.422H240.744V230.292ZM293.003 230.292H266.873V256.422H293.003V230.292ZM214.614 204.163H188.484V230.292H214.614V204.163ZM266.873 204.163H240.744V230.292H266.873V204.163Z" fill="#01579B"/>
<path d="M214.614 256.422H188.484V230.292H214.614V256.422ZM266.873 230.292H240.743V256.422H266.873V230.292ZM266.873 178.033H240.743V204.163H266.873V178.033ZM240.743 204.163H214.614V230.292H240.743V204.163Z" fill="#0288D1"/>
</svg>
