<svg width="512" height="512" viewBox="0 0 512 512" fill="none" xmlns="http://www.w3.org/2000/svg">
<path d="M155.385 266.566C149.533 260.714 149.533 251.226 155.385 245.373L245.373 155.385C251.226 149.533 260.714 149.533 266.566 155.385L356.554 245.373C362.406 251.226 362.406 260.714 356.554 266.566L266.566 356.554C260.714 362.406 251.226 362.406 245.373 356.554L155.385 266.566Z" fill="#EE513B"/>
<path d="M227.097 173.951L217.984 183.064L241.52 206.6C240.568 208.642 240.036 210.92 240.036 213.323C240.036 220.143 244.322 225.962 250.346 228.236V285.81C244.322 288.083 240.036 293.903 240.036 300.723C240.036 309.523 247.17 316.656 255.97 316.656C264.77 316.656 271.903 309.523 271.903 300.723C271.903 294.539 268.381 289.179 263.234 286.537V228.314L285.732 250.812C284.826 252.813 284.322 255.035 284.322 257.374C284.322 266.174 291.455 273.308 300.256 273.308C309.056 273.308 316.189 266.174 316.189 257.374C316.189 248.574 309.056 241.441 300.256 241.441C298.546 241.441 296.898 241.71 295.354 242.208L271.192 218.046C271.654 216.554 271.903 214.967 271.903 213.323C271.903 204.523 264.77 197.389 255.97 197.389C254.325 197.389 252.739 197.638 251.247 198.101L227.097 173.951Z" fill="white"/>
</svg>
