<svg width="512" height="512" viewBox="0 0 512 512" fill="none" xmlns="http://www.w3.org/2000/svg">
<g clip-path="url(#clip0)">
<path d="M169.143 359.727L150.004 145H360.529L341.391 359.727L255.033 384" fill="#E34F26"/>
<path d="M255.5 365.328L325.053 346.189L341.391 162.271H255.5" fill="#EF652A"/>
<path d="M255.5 242.094H220.49L218.156 215.02H255.5V188.879H189.215L196.217 268.701H255.5V242.094ZM255.033 310.713L225.625 302.777L223.758 281.771H197.617L200.885 323.316L255.033 338.254V310.713Z" fill="#EBEBEB"/>
<path d="M255.033 242.094V268.701H287.709L284.441 302.777L255.033 310.713V338.254L309.182 323.316L316.65 242.094H255.033ZM255.033 188.879V215.02H318.984L321.318 188.879H255.033Z" fill="white"/>
</g>
<defs>
<clipPath id="clip0">
<rect width="239" height="239" fill="white" transform="translate(136 145)"/>
</clipPath>
</defs>
</svg>
