<svg width="513" height="512" viewBox="0 0 513 512" fill="none" xmlns="http://www.w3.org/2000/svg">
<path d="M208.682 309.609L162.265 273.073L185.323 230.245L251.505 256L208.682 309.609Z" fill="#F57C00"/>
<path d="M351.833 211.38L348.239 322.187L274.568 351.833L230.245 323.083L294.932 256L351.833 211.38Z" fill="#1E88E5"/>
<path d="M351.833 211.38L293.433 280.26L266.781 193.709L292.239 163.162L351.833 211.38Z" fill="#2962FF"/>
<path d="M307.213 235.037L252.406 319.193L175.739 347.042L188.02 303.917L203.89 250.61L307.213 235.037Z" fill="#AB47BC"/>
<path d="M203.89 250.609L160.167 235.937L188.02 160.167L247.916 167.354L307.213 235.037L203.89 250.609Z" fill="#E91E63"/>
<path d="M193.708 193.708H313.5V313.5H193.708V193.708Z" fill="#000001"/>
<path d="M208.083 291.938H251.208V299.125H208.083V291.938ZM239.229 217.068V208.083H215.271V217.068H222.458V248.214H215.271V257.198H239.229V248.214H232.804V217.068H239.229ZM262.589 258.396C253.604 258.396 248.832 253.135 247.016 250.978L253.777 243.288C254.999 244.639 258.396 248.214 262.589 248.214C267.979 248.214 269.177 242.823 269.177 239.828V208.083H279.958V239.828C279.958 242.818 279.958 247.615 276.365 252.406C273.849 255.761 267.979 258.396 262.589 258.396Z" fill="white"/>
</svg>
