<svg width="512" height="512" viewBox="0 0 512 512" fill="none" xmlns="http://www.w3.org/2000/svg">
<ellipse cx="256" cy="253.361" rx="127" ry="129.361" fill="white"/>
<path d="M232.152 295.507C232.152 295.507 225.213 299.544 237.096 300.907C251.494 302.552 258.852 302.316 274.714 299.317C274.714 299.317 278.893 301.93 284.718 304.195C249.147 319.434 204.216 303.311 232.152 295.507ZM227.803 275.617C227.803 275.617 220.019 281.379 231.912 282.611C247.292 284.199 259.436 284.328 280.459 280.282C280.459 280.282 283.36 283.229 287.929 284.839C244.93 297.415 197.037 285.829 227.803 275.617V275.617Z" fill="#0074BD"/>
<path d="M264.445 241.878C273.215 251.972 262.145 261.047 262.145 261.047C262.145 261.047 284.399 249.561 274.181 235.172C264.634 221.759 257.316 215.097 296.938 192.117C296.938 192.119 234.742 207.648 264.445 241.878V241.878Z" fill="#EA2D2E"/>
<path d="M311.488 310.226C311.488 310.226 316.625 314.462 305.829 317.735C285.303 323.953 220.381 325.828 202.35 317.984C195.871 315.163 208.025 311.252 211.848 310.427C215.835 309.564 218.112 309.721 218.112 309.721C210.902 304.646 171.516 319.692 198.108 324.007C270.624 335.762 330.295 318.713 311.488 310.226V310.226ZM235.493 255.011C235.493 255.011 202.473 262.855 223.801 265.706C232.808 266.911 250.755 266.635 267.483 265.232C281.151 264.083 294.866 261.631 294.866 261.631C294.866 261.631 290.051 263.696 286.564 266.074C253.025 274.896 188.251 270.787 206.901 261.769C222.667 254.143 235.493 255.011 235.493 255.011V255.011ZM294.729 288.12C328.819 270.41 313.056 253.391 302.053 255.683C299.364 256.244 298.157 256.731 298.157 256.731C298.157 256.731 299.158 255.161 301.068 254.485C322.832 246.837 339.568 277.05 294.048 289.018C294.048 289.015 294.57 288.542 294.729 288.12V288.12Z" fill="#0074BD"/>
<path d="M274.179 155C274.179 155 293.054 173.887 256.271 202.92C226.773 226.218 249.545 239.498 256.261 254.678C239.041 239.143 226.41 225.465 234.882 212.736C247.324 194.056 281.792 184.996 274.179 155V155Z" fill="#EA2D2E"/>
<path d="M238.846 336.117C271.56 338.208 321.811 334.952 323 319.471C323 319.471 320.713 325.34 295.961 329.996C268.035 335.253 233.585 334.641 213.16 331.268C213.16 331.27 217.345 334.734 238.846 336.117V336.117Z" fill="#0074BD"/>
</svg>
