<svg width="512" height="512" viewBox="0 0 512 512" fill="none" xmlns="http://www.w3.org/2000/svg">
<path d="M343.06 188.765C329.761 171.545 311.655 158.656 291.03 151.727C270.406 144.798 248.19 144.141 227.192 149.839C206.194 155.537 187.358 167.334 173.065 183.738C158.772 200.142 149.665 220.417 146.895 241.997C144.125 263.577 147.818 285.494 157.505 304.976C167.192 324.458 182.439 340.629 201.317 351.445C220.196 362.261 241.858 367.235 263.564 365.739C285.269 364.243 306.044 356.344 323.26 343.04C346.34 325.205 361.392 298.933 365.105 270.003C368.818 241.072 360.888 211.851 343.06 188.765V188.765Z" fill="#FF6C37"/>
<path d="M293.103 216.083L246.72 262.833L233.611 249.358C279.261 203.708 283.845 207.833 293.103 216.083V216.083Z" fill="white"/>
<path d="M246.718 264.118C246.307 264.107 245.915 263.944 245.618 263.659L232.418 250.46C232.121 250.152 231.955 249.741 231.955 249.314C231.955 248.886 232.121 248.475 232.418 248.168C277.426 203.16 283.568 205.268 294.201 214.893C294.379 215.035 294.521 215.217 294.617 215.424C294.712 215.631 294.758 215.857 294.751 216.085C294.785 216.306 294.761 216.532 294.681 216.741C294.6 216.951 294.466 217.135 294.293 217.276L247.909 263.659C247.585 263.958 247.159 264.121 246.718 264.118V264.118ZM235.901 249.36L246.718 260.176L290.718 216.176C289.199 214.273 287.031 212.996 284.63 212.59C282.228 212.184 279.761 212.678 277.701 213.976C269.726 217.551 256.893 228.46 235.901 249.36V249.36Z" fill="#FF6C37"/>
<path d="M260.008 275.758L247.358 262.833L293.741 217C306.208 229.191 287.691 249.541 260.008 275.758Z" fill="white"/>
<path d="M260.009 277.41C259.603 277.377 259.218 277.217 258.909 276.952L245.984 264.302C245.79 263.832 245.79 263.305 245.984 262.835C245.844 262.45 245.844 262.028 245.984 261.643L292.367 215.26C292.69 214.957 293.116 214.789 293.559 214.789C294.002 214.789 294.428 214.957 294.751 215.26C296.253 216.642 297.441 218.332 298.232 220.214C299.023 222.097 299.399 224.128 299.334 226.168C299.334 238.543 285.217 254.127 261.201 276.86C260.88 277.177 260.458 277.372 260.009 277.41V277.41ZM249.742 262.835L260.101 273.193C278.434 255.868 295.942 237.993 296.034 225.893C296.134 223.328 295.285 220.815 293.651 218.835L249.742 262.835Z" fill="#FF6C37"/>
<path d="M233.976 249.634L243.142 258.8C243.201 258.852 243.248 258.916 243.28 258.987C243.312 259.058 243.328 259.135 243.328 259.213C243.328 259.291 243.312 259.368 243.28 259.439C243.248 259.51 243.201 259.574 243.142 259.625L223.801 263.75C223.411 263.833 223.004 263.787 222.643 263.618C222.282 263.449 221.986 263.167 221.799 262.815C221.612 262.463 221.546 262.059 221.609 261.665C221.673 261.272 221.863 260.91 222.151 260.634L233.426 249.45C233.426 249.45 233.792 249.45 233.976 249.634Z" fill="white"/>
<path d="M223.344 265.583C222.733 265.575 222.134 265.411 221.604 265.106C221.074 264.801 220.632 264.366 220.319 263.841C219.966 263.176 219.837 262.415 219.953 261.672C220.069 260.928 220.422 260.242 220.96 259.716L232.144 248.441C232.547 248.08 233.069 247.881 233.61 247.881C234.151 247.881 234.674 248.08 235.077 248.441L244.244 257.608C244.511 257.862 244.703 258.184 244.8 258.539C244.897 258.895 244.895 259.27 244.794 259.624C244.688 259.986 244.488 260.312 244.214 260.57C243.94 260.828 243.602 261.008 243.235 261.091L223.894 265.216L223.344 265.583ZM233.61 251.649L223.252 262.008L240.394 258.341L233.61 251.649Z" fill="#FF6C37"/>
<path d="M317.759 190.325C315.372 188.02 312.387 186.43 309.143 185.733C305.899 185.037 302.525 185.262 299.402 186.383C296.279 187.504 293.532 189.476 291.471 192.077C289.411 194.678 288.119 197.803 287.742 201.1C287.365 204.396 287.917 207.733 289.337 210.731C290.757 213.73 292.988 216.272 295.777 218.069C298.567 219.866 301.803 220.847 305.121 220.901C308.438 220.955 311.705 220.08 314.551 218.374L302.084 205.908L317.759 190.325Z" fill="white"/>
<path d="M305.384 222.592C301.572 222.542 297.86 221.372 294.708 219.228C291.556 217.083 289.105 214.059 287.659 210.532C286.213 207.005 285.836 203.131 286.576 199.391C287.315 195.651 289.138 192.212 291.818 189.501C295.486 185.895 300.424 183.875 305.567 183.875C310.711 183.875 315.649 185.895 319.317 189.501C319.491 189.647 319.631 189.829 319.726 190.035C319.822 190.241 319.872 190.465 319.872 190.692C319.872 190.919 319.822 191.143 319.726 191.349C319.631 191.555 319.491 191.738 319.317 191.884L304.467 205.909L315.742 217C315.925 217.175 316.061 217.392 316.141 217.631C316.221 217.871 316.242 218.126 316.201 218.375C316.173 218.616 316.093 218.847 315.967 219.053C315.84 219.259 315.67 219.434 315.467 219.567C312.439 221.463 308.956 222.508 305.384 222.592V222.592ZM305.384 187.026C302.205 187.042 299.102 187.997 296.464 189.771C293.826 191.544 291.771 194.058 290.557 196.996C289.342 199.934 289.023 203.165 289.639 206.284C290.254 209.402 291.778 212.27 294.017 214.525C296.296 216.816 299.212 218.365 302.385 218.97C305.558 219.575 308.84 219.208 311.801 217.917L300.984 207.101C300.806 206.958 300.664 206.776 300.568 206.57C300.473 206.363 300.427 206.137 300.434 205.909C300.441 205.697 300.493 205.488 300.588 205.298C300.683 205.108 300.818 204.941 300.984 204.809L315.284 190.417C312.443 188.236 308.966 187.045 305.384 187.026V187.026Z" fill="#FF6C37"/>
<path d="M318.036 190.601L302.361 206.184L314.828 218.651C316.083 217.931 317.252 217.07 318.311 216.084C321.579 212.63 323.377 208.041 323.326 203.287C323.274 198.532 321.378 193.984 318.036 190.601V190.601Z" fill="white"/>
<path d="M314.551 220.023C314.345 220.034 314.139 219.998 313.949 219.919C313.758 219.839 313.588 219.718 313.451 219.564L300.984 207.098C300.806 206.955 300.664 206.774 300.569 206.567C300.473 206.36 300.427 206.134 300.434 205.906C300.441 205.694 300.493 205.485 300.588 205.296C300.683 205.106 300.818 204.939 300.984 204.806L316.568 189.498C316.718 189.271 316.922 189.085 317.162 188.956C317.402 188.827 317.67 188.76 317.943 188.76C318.215 188.76 318.483 188.827 318.723 188.956C318.963 189.085 319.167 189.271 319.318 189.498V189.498C321.147 191.29 322.6 193.429 323.592 195.79C324.584 198.151 325.095 200.687 325.095 203.248C325.095 205.809 324.584 208.344 323.592 210.705C322.6 213.066 321.147 215.205 319.318 216.998C318.24 218.143 317.005 219.131 315.651 219.931C315.31 220.104 314.916 220.136 314.551 220.023V220.023ZM304.468 205.906L314.826 216.264C315.538 215.765 316.212 215.213 316.843 214.614C319.887 211.577 321.602 207.456 321.609 203.156C321.614 199.308 320.213 195.592 317.668 192.706L304.468 205.906Z" fill="#FF6C37"/>
<path d="M295.027 218.01C293.786 216.844 292.146 216.194 290.443 216.194C288.74 216.194 287.101 216.844 285.86 218.01L244.335 259.443L251.21 266.41L295.118 227.91C295.789 227.269 296.322 226.498 296.683 225.643C297.044 224.788 297.226 223.868 297.218 222.94C297.209 222.012 297.01 221.096 296.633 220.248C296.256 219.4 295.71 218.638 295.027 218.01V218.01Z" fill="white"/>
<path d="M250.842 268.059C250.431 268.048 250.039 267.885 249.742 267.6L242.775 260.634C242.478 260.326 242.312 259.915 242.312 259.488C242.313 259.06 242.478 258.649 242.775 258.342L284.3 217C285.881 215.422 288.024 214.535 290.258 214.535C292.493 214.535 294.636 215.422 296.217 217V217C297.034 217.815 297.675 218.788 298.101 219.86C298.526 220.932 298.728 222.081 298.692 223.234C298.645 224.38 298.369 225.506 297.882 226.545C297.394 227.584 296.703 228.515 295.85 229.284L251.942 267.784C251.623 268.01 251.23 268.108 250.842 268.059V268.059ZM245.984 259.442L250.567 264.117L293.65 226.625C294.179 226.168 294.606 225.606 294.906 224.975C295.206 224.344 295.371 223.657 295.392 222.959C295.419 222.257 295.294 221.557 295.025 220.908C294.756 220.26 294.349 219.677 293.833 219.2C292.872 218.243 291.57 217.706 290.213 217.706C288.856 217.706 287.554 218.243 286.592 219.2L245.984 259.442Z" fill="#FF6C37"/>
<path d="M212.163 306.652C212.043 306.81 211.979 307.003 211.979 307.202C211.979 307.4 212.043 307.593 212.163 307.752L213.996 315.727C214.073 316.191 214.004 316.668 213.8 317.093C213.596 317.517 213.267 317.868 212.856 318.099C212.445 318.329 211.974 318.427 211.505 318.38C211.037 318.333 210.594 318.143 210.238 317.835L197.679 305.735L236.821 266.318H250.387L259.554 275.485C245.254 287.989 229.309 298.476 212.163 306.652V306.652Z" fill="white"/>
<path d="M211.335 320.125C210.297 320.106 209.309 319.677 208.585 318.934L196.577 306.925C196.399 306.783 196.256 306.601 196.161 306.394C196.065 306.188 196.019 305.961 196.027 305.734C196.033 305.521 196.086 305.313 196.181 305.123C196.276 304.933 196.411 304.766 196.577 304.634L235.993 265.125C236.214 264.891 236.502 264.731 236.818 264.667H250.476C250.832 264.541 251.221 264.541 251.576 264.667L260.743 273.834C260.918 273.995 261.051 274.195 261.13 274.419C261.21 274.642 261.235 274.882 261.201 275.117C261.209 275.345 261.163 275.571 261.067 275.778C260.972 275.985 260.829 276.166 260.651 276.309L259.918 276.95C245.559 288.921 229.762 299.052 212.893 307.109L214.635 314.534C214.772 315.107 214.779 315.703 214.655 316.28C214.531 316.856 214.28 317.397 213.919 317.863C213.559 318.329 213.098 318.708 212.572 318.973C212.045 319.238 211.466 319.381 210.877 319.392L211.335 320.125ZM200.152 305.734L210.968 316.642C211.069 316.732 211.2 316.782 211.335 316.782C211.47 316.782 211.601 316.732 211.702 316.642C211.769 316.548 211.805 316.436 211.805 316.321C211.805 316.206 211.769 316.094 211.702 316L209.868 308.025C209.725 307.453 209.784 306.849 210.034 306.314C210.285 305.78 210.712 305.348 211.243 305.092V305.092C227.659 297.144 243.049 287.232 257.076 275.575L249.56 268.059H237.277L200.152 305.734Z" fill="#FF6C37"/>
<path d="M188.236 315.174L197.402 306.008L211.519 320.124L189.061 318.566C188.674 318.538 188.306 318.388 188.009 318.137C187.713 317.886 187.504 317.548 187.412 317.171C187.321 316.794 187.351 316.397 187.499 316.039C187.647 315.68 187.905 315.377 188.236 315.174V315.174Z" fill="white"/>
<path d="M211.792 321.502L189.425 319.943C188.775 319.882 188.155 319.639 187.635 319.242C187.116 318.845 186.719 318.31 186.49 317.698C186.26 317.086 186.208 316.422 186.338 315.782C186.468 315.141 186.775 314.551 187.225 314.077V314.077L196.392 304.91C196.7 304.613 197.11 304.447 197.538 304.447C197.965 304.447 198.376 304.613 198.684 304.91L212.709 318.935C212.903 319.201 213.007 319.522 213.007 319.852C213.007 320.181 212.903 320.502 212.709 320.768C212.497 321.111 212.173 321.371 211.792 321.502ZM189.425 316.368L207.759 317.56L197.675 308.118L189.425 316.368Z" fill="#FF6C37"/>
<path d="M251.668 267.417L233.152 270.259L243.877 259.625L251.668 267.417Z" fill="white"/>
<path d="M233.151 271.999C232.843 272.009 232.539 271.926 232.278 271.763C232.017 271.6 231.81 271.363 231.684 271.083C231.49 270.816 231.386 270.495 231.386 270.166C231.386 269.837 231.49 269.516 231.684 269.249L242.317 258.524C242.64 258.222 243.066 258.053 243.509 258.053C243.952 258.053 244.378 258.222 244.7 258.524L252.492 266.316C252.647 266.564 252.728 266.849 252.728 267.141C252.728 267.433 252.647 267.719 252.492 267.966C252.422 268.27 252.263 268.547 252.034 268.759C251.805 268.972 251.518 269.111 251.209 269.158L232.876 271.999H233.151ZM243.876 262.008L237.917 267.966L248.184 266.408L243.876 262.008Z" fill="#FF6C37"/>
<path d="M251.668 267.417L238.743 269.067C238.397 269.146 238.035 269.111 237.71 268.968C237.386 268.825 237.116 268.581 236.941 268.272C236.766 267.963 236.695 267.606 236.739 267.254C236.783 266.902 236.939 266.573 237.185 266.317L243.877 259.625L251.668 267.417Z" fill="white"/>
<path d="M238.376 270.807C237.777 270.802 237.19 270.638 236.675 270.332C236.16 270.026 235.735 269.589 235.443 269.065C235.093 268.438 234.958 267.714 235.057 267.002C235.156 266.291 235.485 265.631 235.993 265.124L242.685 258.432C243.008 258.129 243.434 257.96 243.876 257.96C244.319 257.96 244.745 258.129 245.068 258.432L252.86 266.224C253.091 266.443 253.254 266.725 253.328 267.036C253.403 267.346 253.385 267.671 253.279 267.972C253.172 268.273 252.98 268.536 252.727 268.73C252.474 268.924 252.17 269.041 251.851 269.065L239.018 270.715L238.376 270.807ZM238.376 267.415L248.093 266.224L243.785 261.915L238.285 267.415H238.376Z" fill="#FF6C37"/>
<path d="M318.127 201.141C317.954 200.852 317.681 200.637 317.36 200.535C317.039 200.434 316.692 200.454 316.385 200.591C316.234 200.669 316.099 200.776 315.99 200.905C315.88 201.035 315.797 201.185 315.746 201.347C315.695 201.509 315.676 201.68 315.692 201.849C315.707 202.018 315.756 202.183 315.835 202.333C316.15 202.995 316.274 203.732 316.193 204.461C316.112 205.19 315.829 205.881 315.377 206.458C315.257 206.57 315.162 206.704 315.097 206.854C315.032 207.004 314.999 207.166 314.999 207.329C314.999 207.492 315.032 207.654 315.097 207.804C315.162 207.953 315.257 208.088 315.377 208.2C315.613 208.292 315.874 208.292 316.11 208.2C316.323 208.255 316.547 208.249 316.758 208.185C316.968 208.12 317.156 207.998 317.302 207.833C318.056 206.909 318.534 205.79 318.68 204.606C318.826 203.422 318.634 202.221 318.127 201.141V201.141Z" fill="#FF6C37"/>
</svg>
