<svg width="513" height="512" viewBox="0 0 513 512" fill="none" xmlns="http://www.w3.org/2000/svg">
<path d="M254.577 148.065C199.627 148.065 203.058 171.895 203.058 171.895L203.119 196.583H255.557V203.995H182.291C182.291 203.995 147.129 200.007 147.129 255.452C147.129 310.898 177.82 308.931 177.82 308.931H196.136V283.202C196.136 283.202 195.148 252.511 226.337 252.511H278.346C278.346 252.511 307.566 252.984 307.566 224.271V176.797C307.566 176.797 312.004 148.065 254.577 148.065ZM225.663 164.668C226.902 164.667 228.129 164.91 229.274 165.384C230.419 165.857 231.46 166.552 232.336 167.428C233.212 168.304 233.907 169.345 234.38 170.49C234.854 171.635 235.097 172.862 235.096 174.101C235.097 175.34 234.854 176.568 234.38 177.713C233.907 178.858 233.212 179.898 232.336 180.774C231.46 181.65 230.419 182.345 229.274 182.819C228.129 183.293 226.902 183.536 225.663 183.535C224.424 183.536 223.196 183.293 222.051 182.819C220.906 182.345 219.866 181.65 218.99 180.774C218.114 179.898 217.419 178.858 216.945 177.713C216.471 176.568 216.228 175.34 216.229 174.101C216.228 172.862 216.471 171.635 216.945 170.49C217.419 169.345 218.114 168.304 218.99 167.428C219.866 166.552 220.906 165.857 222.051 165.384C223.196 164.91 224.424 164.667 225.663 164.668V164.668Z" fill="url(#paint0_linear)"/>
<path d="M256.132 363.391C311.082 363.391 307.651 339.562 307.651 339.562L307.59 314.875H255.151V307.462H328.416C328.416 307.462 363.579 311.45 363.579 256.004C363.579 200.559 332.888 202.526 332.888 202.526H314.572V228.254C314.572 228.254 315.559 258.945 284.371 258.945H232.362C232.362 258.945 203.142 258.473 203.142 287.186V334.661C203.142 334.661 198.705 363.391 256.131 363.391H256.132ZM285.046 346.791C283.807 346.792 282.58 346.549 281.434 346.075C280.289 345.601 279.249 344.907 278.373 344.03C277.497 343.154 276.802 342.114 276.328 340.969C275.854 339.824 275.611 338.596 275.612 337.357C275.611 336.118 275.854 334.891 276.328 333.746C276.802 332.601 277.496 331.56 278.373 330.684C279.249 329.807 280.289 329.113 281.434 328.639C282.579 328.165 283.807 327.922 285.046 327.923C286.285 327.922 287.512 328.165 288.657 328.639C289.802 329.112 290.843 329.807 291.719 330.683C292.595 331.56 293.29 332.6 293.764 333.745C294.237 334.89 294.48 336.117 294.479 337.356C294.48 338.596 294.237 339.823 293.764 340.968C293.29 342.113 292.595 343.153 291.719 344.029C290.843 344.906 289.802 345.601 288.657 346.074C287.512 346.548 286.285 346.791 285.046 346.79V346.791Z" fill="url(#paint1_linear)"/>
<defs>
<linearGradient id="paint0_linear" x1="167.93" y1="167.433" x2="275.199" y2="273.632" gradientUnits="userSpaceOnUse">
<stop stop-color="#387EB8"/>
<stop offset="1" stop-color="#366994"/>
</linearGradient>
<linearGradient id="paint1_linear" x1="233.766" y1="235.623" x2="348.961" y2="344.52" gradientUnits="userSpaceOnUse">
<stop stop-color="#FFE052"/>
<stop offset="1" stop-color="#FFC331"/>
</linearGradient>
</defs>
</svg>
